<?xml version="1.0" encoding="utf-8"?>
<!-- Generator: Adobe Illustrator 16.0.0, SVG Export Plug-In . SVG Version: 6.00 Build 0)  -->
<!DOCTYPE svg PUBLIC "-//W3C//DTD SVG 1.1//EN" "http://www.w3.org/Graphics/SVG/1.1/DTD/svg11.dtd">
<svg version="1.1" id="Layer_1" xmlns="http://www.w3.org/2000/svg" xmlns:xlink="http://www.w3.org/1999/xlink" x="0px" y="0px"
	 width="792px" height="612px" viewBox="0 0 792 612" enable-background="new 0 0 792 612" xml:space="preserve">
<g>
	<path fill="#68686A" d="M792.001,612C528,612,264,612,0,612c0-116.641,0-233.281,0-349.921c0.704-0.048,1.428-0.009,2.109-0.159
		c2.341-0.512,4.713-0.948,6.99-1.672c4.703-1.496,9.356-1.747,14.096-0.178c0.852,0.281,1.959,0.283,2.805-0.005
		c3.402-1.159,6.74-2.504,10.119-3.731c1.066-0.388,1.495-1.052,1.45-2.166c-0.054-1.333-0.013-2.671-0.013-4.017
		c4.71-1.434,9.08-3.063,13.746-1.049c0.287,0.124,0.645,0.083,0.934,0.204c1.205,0.503,2.379,0.377,3.445-0.279
		c1.896-1.168,3.729-1.044,5.658-0.074c1.585,0.796,3.227,1.202,5.086,0.791c2.883-0.637,5.82-1.028,8.726-1.566
		c0.597-0.111,1.159-0.413,1.872-0.676c0-0.888-0.001-1.679,0-2.471c0-2.56-0.066-5.123,0.039-7.678
		c0.033-0.802,0.332-1.76,0.852-2.339c0.893-0.992,2.053-1.741,3.101-2.592c0.789,0.264,1.454,0.552,2.147,0.707
		c1.803,0.401,2.638,1.414,2.767,3.328c0.126,1.873,0.666,3.717,1.029,5.599c1.077,0,1.915,0,3.025,0
		c0-1.996,0.058-3.822-0.019-5.642c-0.06-1.403,0.243-2.514,1.615-3.159c1.26-0.593,1.787-1.716,2.176-2.989
		c0.507-1.662,1.137-3.287,1.753-5.036c4.713,0,9.263,0.001,13.812,0c0.882,0,1.26,0.507,1.43,1.309
		c0.231,1.093,0.562,2.166,0.777,3.262c0.607,3.099,1.17,2.603,3.326,2.709c1.356,0.067,2.705,0.278,4.061,0.375
		c0.764,0.055,1.534,0.01,2.336,0.01c0.156-0.771,0.275-1.226,0.336-1.688c0.475-3.645,0.906-7.296,1.434-10.934
		c0.094-0.641,0.424-1.415,0.905-1.8c1.233-0.985,2.614-1.786,4.079-2.756c2.129,2.139,4.184,4.141,6.146,6.229
		c0.391,0.415,0.518,1.145,0.615,1.754c0.675,4.18,1.294,8.37,1.964,12.551c0.259,1.613,0.604,3.212,0.911,4.818
		c0.209-0.001,0.418-0.002,0.627-0.003c1.197-6.14,2.395-12.279,3.6-18.458c0.66-0.078,1.123-0.172,1.589-0.18
		c1.994-0.034,2.026-0.023,2.521,2.026c0.469,1.94,0.856,3.9,1.326,5.84c0.151,0.628,0.449,1.221,0.68,1.83
		c0.156-0.012,0.312-0.023,0.469-0.034c0.545-1.782,1.091-3.564,1.635-5.343c1.398,0.229,2.559,0.42,3.984,0.654
		c0.34-3.986-0.08-7.801,0.263-11.615c2.874,0,5.481,0,8.165,0c1.539,5.775,2.297,11.618,3.906,17.552
		c0.518-0.454,0.848-0.606,0.94-0.848c0.742-1.947,2.235-2.203,4.068-2.024c1.224,0.12,2.476-0.035,3.724-0.067
		c0.146-1.382,0.26-2.459,0.398-3.774c1.576,0.37,2.918,0.684,4.443,1.042c0,3.194,0,6.119,0,9.299
		c1.062-0.182,1.844-0.258,2.592-0.454c1.877-0.49,1.889-0.512,1.924-2.415c0.028-1.599,0.084-3.204-0.015-4.798
		c-0.085-1.382,0.448-2.112,1.798-2.306c0.381-0.055,0.752-0.172,1.24-0.287c0.963,1.409,1.892,2.767,2.773,4.058
		c0.464-0.067,0.711-0.064,0.93-0.141c5.949-2.106,11.887-4.173,16.842-8.361c2.741-2.316,5.796-4.262,8.711-6.374
		c4.663-3.378,9.33-6.751,13.99-10.134c1.135-0.823,2.275-1.521,3.72-0.679c0.079,0.25,0.239,0.489,0.205,0.695
		c-0.513,3.098,1.011,5.161,3.401,6.802c0.262,0.179,0.456,0.458,0.722,0.63c1.646,1.063,2.187,2.537,2.042,4.487
		c-0.162,2.2-0.037,4.421-0.037,7.001c1.826-0.188,3.268-0.336,4.988-0.513c0-2.737,0.077-5.205-0.028-7.664
		c-0.065-1.526,0.477-2.429,1.944-2.804c0.452-0.116,0.889-0.291,1.374-0.452c0.878,0.998,1.696,1.929,2.784,3.167
		c0.954-2.615,1.764-4.834,2.729-7.483c0.997,1.837,1.724,3.336,2.608,4.735c0.445,0.703,1.085,1.563,1.801,1.762
		c2.011,0.559,2.34,1.874,2.215,3.645c-0.085,1.194-0.042,2.4-0.006,3.599c0.025,0.843,0.135,1.683,0.205,2.49
		c3.231,0.094,3.223,0.094,3.443-2.7c0.043-0.539,0.182-1.071,0.307-1.784c1.016-0.052,1.956-0.146,2.896-0.141
		c5.025,0.029,3.917-0.477,4.979,4.036c0.412,1.754,0.834,3.507,1.321,5.548c1.91-0.806,3.557-1.389,5.077-2.207
		c0.486-0.262,0.828-1.123,0.904-1.75c0.146-1.183,0.023-2.396,0.062-3.595c0.06-1.769,1.812-3.287,3.523-2.956
		c1.147,0.222,2.25,0.674,3.312,1.004c0.185,1.404,0.406,2.586,0.484,3.777c0.254,3.854-0.312,3.401,3.799,4.511
		c1.954,0.527,1.946,0.54,1.996,2.594c0.033,1.326,0.08,2.651,0.129,4.245c1.211-0.157,2.094-0.271,3.155-0.409
		c0-2.708-0.005-5.178,0.001-7.647c0.008-2.53,0.026-5.06,0.041-7.825c1.834,0.093,3.3,0.167,4.777,0.242
		c0.137,1.526,0.247,2.764,0.35,3.909c1.018,0.241,1.764,0.418,2.631,0.624c0,3.736,0.041,7.33-0.02,10.922
		c-0.023,1.368,0.468,1.973,1.844,2.24c4.94,0.959,9.854,2.056,14.784,3.06c0.689,0.14,1.434,0.13,2.138,0.056
		c5.325-0.563,10.646-1.154,15.969-1.752c0.615-0.069,1.222-0.227,1.946-0.366c0.392-2.782,0.767-5.448,1.111-7.891
		c0.298-0.241,0.353-0.308,0.423-0.336c0.146-0.059,0.309-0.153,0.453-0.137c2.318,0.261,3.624-0.744,3.928-3.069
		c0.04-0.303,0.166-0.683,0.387-0.855c0.428-0.336,0.952-0.551,1.774-1.001c0.093,1.66,0.222,2.841,0.211,4.021
		c-0.015,1.692,1.691,1.738,2.607,2.878c0,1.639-0.022,3.473,0.005,5.306c0.08,5.397-0.717,4.007,4.312,5.705
		c2.619,0.885,5.096,1.046,7.594-0.296c1.634-0.878,3.38-0.817,5.145-0.427c1.014,0.224,2.041,0.384,3.061,0.581
		c1.498,0.289,2.996,0.678,4.275-0.631c0.194-0.199,0.592-0.271,0.898-0.276c2.371-0.042,4.808-0.525,6.946,1.067
		c0.415,0.309,0.99,0.401,1.591,0.632c1.213-1.395,2.429-2.665,3.488-4.054c0.887-1.161,1.929-1.515,3.326-1.299
		c2.843,0.439,5.693,0.828,8.546,1.195c4.565,0.587,9.103,1.654,13.705-0.104c1.364-0.521,2.204-1.022,2.44-2.489
		c0.132-0.82,0.21-1.765,1.354-2.028c1.866-0.43,3.693-1.061,5.576-1.377c0.771-0.129,1.882,0.076,2.427,0.577
		c2.654,2.443,5.4,2.209,8.304,0.632c0.14-0.076,0.29-0.144,0.444-0.179c1.309-0.301,2.116-1.137,2.353-2.423
		c0.505-2.751,2.34-3.514,4.837-3.403c0.853,0.038,1.707,0.006,2.646,0.006c0.834,2.862,1.607,5.517,2.471,8.48
		c1.874-0.642,3.479-1.343,5.156-1.73c2.508-0.579,4.056-1.967,4.701-4.469c0.305-1.177,0.877-2.221,2.277-2.516
		c0.858-0.18,1.307-0.819,1.506-1.68c0.18-0.776,0.532-1.515,0.681-2.295c0.276-1.451,1.123-2.005,2.733-1.849
		c0.289,1.286,0.651,2.583,0.854,3.905c0.147,0.968,0.608,1.581,1.425,2.064c4.196,2.485,8.373,5.003,12.566,7.493
		c0.398,0.237,0.862,0.362,1.415,0.588c0.617-0.675,1.261-1.274,1.779-1.967c1.283-1.713,2.698-3.157,5.046-3.172
		c1.021-0.007,1.338-0.749,1.468-1.589c0.22-1.421,0.384-2.851,0.605-4.272c0.149-0.956-0.172-2.338,1.444-2.246
		c1.359,0.078,1.103,1.318,1.265,2.207c0.322,1.774,0.633,3.551,0.953,5.357c1.883,0.259,3.473,0.414,5.033,0.714
		c1.174,0.226,1.819-0.253,2.265-1.245c0.229-0.51,0.493-1.004,0.75-1.501c1.285-2.479,1.286-2.479,4.509-2.038
		c0.435,1.248,0.948,2.576,1.354,3.936c0.312,1.041,0.87,1.496,1.994,1.699c4.238,0.765,8.447,1.688,12.672,2.534
		c0.743,0.149,1.504,0.213,2.328,0.327c0.232-0.884,0.418-1.49,0.551-2.108c0.486-2.265,0.923-4.541,1.456-6.794
		c0.136-0.571,0.424-1.334,0.872-1.565c2.342-1.209,5.036,0.471,5.09,3.102c0.031,1.575,0.006,3.151,0.006,4.802
		c1.019,0.187,1.712,0.382,2.415,0.433c5.343,0.387,10.688,0.744,16.031,1.112c7.577,0.522,15.158,0.999,22.729,1.606
		c1.477,0.119,2.984,0.581,4.353,1.173c4.839,2.096,9.604,4.363,14.441,6.465c1.644,0.714,2.901,1.601,3.22,3.474
		c0.218,1.278,1.057,1.69,2.271,1.55c0.556-0.064,1.116-0.087,1.676-0.114c7.507-0.372,15.015-0.726,22.521-1.127
		c1.053-0.057,1.846,0.257,2.567,0.987c1.068,1.081,2.213,2.085,3.271,3.175c0.842,0.868,1.792,1.176,3.004,1.145
		c3.838-0.097,7.681-0.026,11.517-0.157c1.65-0.056,2.981,0.269,3.943,1.68c0.693,1.018,1.664,1.416,2.897,1.289
		c0.713-0.074,1.444,0.031,2.157-0.043c2.944-0.306,5.729-0.026,8.081,2.022c0.109,0.096,0.3,0.098,0.553,0.173
		c0.425-0.225,0.977-0.409,1.391-0.758c1.42-1.196,2.849-1.243,4.383-0.243c0.465,0.303,1.03,0.45,1.502,0.744
		c1.566,0.975,3.231,1.146,5.053,0.988c3.176-0.276,6.367-0.482,9.553-0.49c2.632-0.006,5.263,0.388,7.897,0.466
		c1.792,0.053,3.305,0.47,4.331,2.048c0.787,1.21,1.939,1.45,3.319,1.421c3.438-0.073,6.883-0.127,10.317,0.015
		c2.064,0.085,3.794-0.188,4.914-2.118c0.053-0.092,0.287-0.08,0.579-0.15c0.651,0.577,1.439,1.143,2.064,1.854
		c1.492,1.7,3.297,2.419,5.548,2.135c0.787-0.1,1.598-0.007,2.397-0.012c1.715-0.011,3.283,0.486,4.789,1.27
		c0.126,1.012,0.241,1.942,0.383,3.085c2.644,0.101,5.213,0.199,7.781,0.297c0.138,1.828,0.25,3.304,0.369,4.888
		c3.027,0,5.795,0,8.914,0c0.095-2.854,0.187-5.601,0.28-8.427c2.295-0.706,4.444-1.313,6.554-2.038
		c1.061-0.364,2.001-0.244,3.003,0.141c4.476,1.718,8.964,3.399,13.442,5.109c2.344,0.895,2.358,0.909,2.364,3.464
		c0.014,5.6-0.007,11.2,0.018,16.799c0.004,1.011,0.156,2.021,0.251,3.166c6.8,0.376,13.407-0.146,20.149,0.309
		c0,1.453,0,2.645,0,3.837c0,104.154-0.001,208.309,0.006,312.464C791.876,609.606,791.957,610.803,792.001,612z"/>
</g>
</svg>
