<?xml version="1.0" encoding="utf-8"?>
<!-- Generator: Adobe Illustrator 16.0.0, SVG Export Plug-In . SVG Version: 6.00 Build 0)  -->
<!DOCTYPE svg PUBLIC "-//W3C//DTD SVG 1.1//EN" "http://www.w3.org/Graphics/SVG/1.1/DTD/svg11.dtd">
<svg version="1.1" id="Layer_1" xmlns="http://www.w3.org/2000/svg" xmlns:xlink="http://www.w3.org/1999/xlink" x="0px" y="0px"
	 width="792px" height="612px" viewBox="0 0 792 612" enable-background="new 0 0 792 612" xml:space="preserve">
<g>
	<path fill="#68686A" d="M584.841,226.507c-0.727,2.062-1.463,3.894-2.006,5.781c-0.367,1.278-1.104,1.845-2.362,1.96
		c-1.989,0.182-3.976,0.393-5.961,0.617c-3.119,0.352-6.235,0.726-9.353,1.09c3.664,1.677,7.415,2.797,11,4.312
		c6.018,2.541,12.187,3.317,18.698,2.988c10.938-0.554,21.897-0.693,32.85-0.968c1.018-0.025,2.082,0.092,3.054,0.382
		c1.834,0.548,3.624,1.249,5.414,1.934c0.454,0.173,0.841,0.523,1.258,0.792c-0.021,0.19-0.042,0.382-0.063,0.571
		c-11.888,0.268-23.614,1.475-34.871,5.684c1.06,0.367,2.131,0.686,3.195,0.661c1.994-0.046,3.984-0.278,5.976-0.453
		c4.696-0.413,9.391-0.854,14.089-1.253c6.609-0.561,13.216-1.152,19.833-1.618c6.938-0.487,13.884-0.853,20.828-1.251
		c6.864-0.395,13.732-0.734,20.595-1.164c1.566-0.098,2.824,0.193,3.715,1.58c0.664,1.033,1.646,1.342,2.875,1.353
		c1.915,0.017,3.827,0.279,5.743,0.343c1.119,0.037,1.739,0.444,2.066,1.562c0.186,0.634,0.652,1.351,1.202,1.68
		c1.773,1.058,3.643,1.952,5.613,2.981c0.998-1.83,2.499-1.862,4.161-1.479c0.616,0.143,1.273,0.1,1.91,0.154
		c6.211,0.541,12.422,1.076,18.632,1.631c6.289,0.561,12.575,1.152,18.864,1.713c6.13,0.547,12.262,1.061,18.392,1.611
		c6.766,0.608,13.528,1.246,20.295,1.854c0.522,0.047,1.058-0.041,1.628-0.068c0-6.126,0-12.084,0-18.226
		c-3.336,0.879-6.039,3.009-9.563,3.804c0-1.573,0.017-2.761-0.006-3.946c-0.016-0.854,0.167-1.77-0.993-2.172
		c-1.076-0.373-1.956-0.359-2.861,0.461c-2.073,1.879-4.211,3.689-6.341,5.506c-0.454,0.388-0.985,0.685-1.806,1.244
		c-0.303-1.797-0.783-3.264-0.746-4.715c0.073-2.855-1.669-4.271-3.837-5.672c-1.11,1.598-2.161,3.109-3.347,4.814
		c-1.479-2.126-2.619-4.159-5.398-3.715c-0.429,2.007-0.838,3.929-1.272,5.967c-2.573-0.929-4.301-2.207-4.47-4.94
		c-0.051-0.816-0.356-1.616-0.571-2.54c-0.826,0.295-1.335,0.529-1.869,0.658c-2.188,0.523-3.389,1.814-3.61,4.124
		c-0.109,1.136-0.601,2.235-0.986,3.588c-1.719-0.78-3.13-1.509-4.604-2.068c-1.598-0.606-2.48-1.582-2.464-3.366
		c0.008-0.867-0.219-1.74-0.371-2.604c-0.496-2.789-0.613-5.683-2.256-8.444c-0.898,1.586-1.689,2.98-2.48,4.377
		c-0.167-0.036-0.333-0.072-0.5-0.107c-0.33-2.253-0.66-4.506-1.014-6.924c-1.234-0.123-2.3-0.229-3.609-0.36
		c-0.459,3.846-0.89,7.458-1.357,11.374c-1.798,0-3.374,0.016-4.95-0.006c-0.836-0.012-1.297-0.504-1.497-1.293
		c-0.273-1.084-0.684-2.147-0.828-3.247c-0.366-2.772-2.498-3.767-4.674-5.097c-0.433,1.799-0.803,3.348-1.179,4.895
		c-0.852,3.5-1.085,3.633-4.727,3.352c-1.031-0.079-1.661-0.44-1.835-1.479c-0.106-0.63-0.102-1.308-0.35-1.876
		c-0.268-0.613-0.657-1.381-1.198-1.622c-0.967-0.431-2.087-0.517-3.051-0.726c-0.589,0.908-1.018,1.568-1.694,2.611
		c-3.364-4.381-6.405-8.729-9.357-12.574c-1.961,0.24-3.486,0.428-5.323,0.652c-0.026,3.648-0.053,7.278-0.078,10.816
		c-2.812,0.939-5.038,0.908-7.227-0.916c-2.203-1.837-4.753-3.252-7.028-5.009c-1.519-1.172-3.087-1.456-4.919-1.226
		c-2.854,0.357-5.718,0.695-8.588,0.838c-1.879,0.093-3.449,0.572-4.61,2.09c-0.906,1.184-2.129,1.562-3.571,1.584
		c-2.958,0.045-5.915,0.225-8.873,0.223c-1.818-0.002-3.43,0.408-5.009,1.327c-0.921,0.536-2.073,0.974-3.111,0.952
		c-3.034-0.062-6.06-0.445-9.093-0.564c-1.663-0.064-2.314-0.869-2.745-2.381c-1.137-3.994-2.437-7.941-3.683-11.902
		c-0.234-0.745-0.519-1.474-0.776-2.199c-1.011,0-1.861,0-2.795,0c-0.462-1.32-0.9-2.576-1.328-3.801
		c-1.914,0.049-1.866,1.397-1.979,2.561c-0.358,3.659-0.719,7.318-0.983,10.984c-0.089,1.234-0.555,1.869-1.774,2.143
		c-2.338,0.523-4.668,1.099-6.963,1.779c-1.124,0.333-2.314,0.764-3.206,1.483c-1.412,1.142-2.615,1.046-4.128,0.246
		C590.188,228.923,587.628,227.82,584.841,226.507z"/>
	<path fill-rule="evenodd" clip-rule="evenodd" fill="#68686A" d="M584.841,226.507c2.787,1.313,5.348,2.416,7.804,3.715
		c1.513,0.8,2.716,0.896,4.128-0.246c0.892-0.72,2.082-1.15,3.206-1.483c2.295-0.681,4.625-1.256,6.963-1.779
		c1.22-0.273,1.686-0.908,1.774-2.143c0.265-3.666,0.625-7.325,0.983-10.984c0.113-1.163,0.065-2.512,1.979-2.561
		c0.428,1.225,0.866,2.48,1.328,3.801c0.934,0,1.784,0,2.795,0c0.258,0.726,0.542,1.454,0.776,2.199
		c1.246,3.961,2.546,7.908,3.683,11.902c0.431,1.512,1.082,2.316,2.745,2.381c3.033,0.119,6.059,0.503,9.093,0.564
		c1.038,0.021,2.19-0.416,3.111-0.952c1.579-0.919,3.19-1.329,5.009-1.327c2.958,0.002,5.915-0.178,8.873-0.223
		c1.442-0.021,2.665-0.4,3.571-1.584c1.161-1.518,2.731-1.997,4.61-2.09c2.87-0.143,5.734-0.48,8.588-0.838
		c1.832-0.23,3.4,0.054,4.919,1.226c2.275,1.757,4.825,3.172,7.028,5.009c2.188,1.824,4.415,1.855,7.227,0.916
		c0.025-3.538,0.052-7.168,0.078-10.816c1.837-0.225,3.362-0.412,5.323-0.652c2.952,3.846,5.993,8.193,9.357,12.574
		c0.677-1.043,1.105-1.703,1.694-2.611c0.964,0.209,2.084,0.295,3.051,0.726c0.541,0.241,0.931,1.009,1.198,1.622
		c0.248,0.568,0.243,1.246,0.35,1.876c0.174,1.039,0.804,1.4,1.835,1.479c3.642,0.281,3.875,0.148,4.727-3.352
		c0.376-1.547,0.746-3.096,1.179-4.895c2.176,1.33,4.308,2.324,4.674,5.097c0.145,1.1,0.555,2.163,0.828,3.247
		c0.2,0.789,0.661,1.281,1.497,1.293c1.576,0.021,3.152,0.006,4.95,0.006c0.468-3.916,0.898-7.528,1.357-11.374
		c1.31,0.131,2.375,0.237,3.609,0.36c0.354,2.418,0.684,4.671,1.014,6.924c0.167,0.035,0.333,0.071,0.5,0.107
		c0.791-1.396,1.582-2.791,2.48-4.377c1.643,2.762,1.76,5.655,2.256,8.444c0.152,0.864,0.379,1.737,0.371,2.604
		c-0.017,1.784,0.866,2.76,2.464,3.366c1.475,0.56,2.886,1.288,4.604,2.068c0.386-1.353,0.877-2.452,0.986-3.588
		c0.222-2.31,1.423-3.601,3.61-4.124c0.534-0.129,1.043-0.363,1.869-0.658c0.215,0.924,0.521,1.724,0.571,2.54
		c0.169,2.733,1.896,4.012,4.47,4.94c0.435-2.038,0.844-3.96,1.272-5.967c2.779-0.444,3.92,1.589,5.398,3.715
		c1.186-1.705,2.236-3.217,3.347-4.814c2.168,1.4,3.91,2.816,3.837,5.672c-0.037,1.451,0.443,2.918,0.746,4.715
		c0.82-0.56,1.352-0.856,1.806-1.244c2.13-1.816,4.268-3.627,6.341-5.506c0.905-0.82,1.785-0.834,2.861-0.461
		c1.16,0.402,0.978,1.318,0.993,2.172c0.022,1.186,0.006,2.373,0.006,3.946c3.524-0.795,6.228-2.925,9.563-3.804
		c0,6.142,0,12.1,0,18.226c-0.57,0.027-1.105,0.115-1.628,0.068c-6.767-0.608-13.529-1.246-20.295-1.854
		c-6.13-0.551-12.262-1.064-18.392-1.611c-6.289-0.561-12.575-1.152-18.864-1.713c-6.21-0.555-12.421-1.09-18.632-1.631
		c-0.637-0.055-1.294-0.012-1.91-0.154c-1.662-0.384-3.163-0.352-4.161,1.479c-1.971-1.029-3.84-1.924-5.613-2.981
		c-0.55-0.329-1.017-1.046-1.202-1.68c-0.327-1.117-0.947-1.524-2.066-1.562c-1.916-0.063-3.828-0.326-5.743-0.343
		c-1.229-0.011-2.211-0.319-2.875-1.353c-0.891-1.387-2.148-1.678-3.715-1.58c-6.862,0.43-13.73,0.77-20.595,1.164
		c-6.944,0.398-13.891,0.764-20.828,1.251c-6.617,0.466-13.224,1.058-19.833,1.618c-4.698,0.398-9.393,0.84-14.089,1.253
		c-1.991,0.175-3.981,0.407-5.976,0.453c-1.064,0.024-2.136-0.294-3.195-0.661c11.257-4.209,22.983-5.416,34.871-5.684
		c0.021-0.189,0.043-0.381,0.063-0.571c-0.417-0.269-0.804-0.619-1.258-0.792c-1.79-0.685-3.58-1.386-5.414-1.934
		c-0.972-0.29-2.036-0.407-3.054-0.382c-10.952,0.274-21.911,0.414-32.85,0.968c-6.512,0.329-12.681-0.447-18.698-2.988
		c-3.585-1.516-7.336-2.636-11-4.312c3.117-0.364,6.233-0.738,9.353-1.09c1.985-0.225,3.972-0.436,5.961-0.617
		c1.258-0.115,1.995-0.682,2.362-1.96C583.378,230.4,584.114,228.568,584.841,226.507z"/>
</g>
</svg>
