<?xml version="1.0" encoding="utf-8"?>
<!-- Generator: Adobe Illustrator 16.0.0, SVG Export Plug-In . SVG Version: 6.00 Build 0)  -->
<!DOCTYPE svg PUBLIC "-//W3C//DTD SVG 1.1//EN" "http://www.w3.org/Graphics/SVG/1.1/DTD/svg11.dtd">
<svg version="1.1" id="Layer_1" xmlns="http://www.w3.org/2000/svg" xmlns:xlink="http://www.w3.org/1999/xlink" x="0px" y="0px"
	 width="792px" height="612px" viewBox="0 0 792 612" enable-background="new 0 0 792 612" xml:space="preserve">
<g>
	<path fill-rule="evenodd" clip-rule="evenodd" fill="#252429" d="M-0.028,335.999c4.072,0,8.144,0,12.297,0
		c1.191,3.259,2.311,6.323,3.491,9.553c1.368,0.061,2.696,0.12,4.263,0.189c2.555,10.386,5.104,20.745,7.692,31.268
		c2.421,0,4.653,0.065,6.878-0.025c1.273-0.052,2.072,0.363,2.723,1.475c1.574,2.69,3.227,5.338,4.918,7.958
		c0.641,0.993,0.863,2.002,0.856,3.163c-0.034,5.76-0.015,11.52-0.015,17.279c0,0.87,0,1.739,0,2.945
		c6.564,0.079,12.936,0.026,19.305,0.036c6.319,0.01,12.639,0.002,18.959,0.002c6.4,0,12.801,0,19.2,0s12.8,0,19.2,0
		c6.319,0,12.639,0,18.959,0c6.394,0,12.787,0,19.493,0c0.208,4.749-0.026,9.355,0.146,14.234c7.93,0,15.73,0,23.803,0
		c1.044,9.767,2.061,19.273,3.098,28.975c1.691,0,3.314,0,5.174,0c0.685-3.809,1.374-7.64,2.061-11.472
		c0.043-0.236,0.072-0.475,0.097-0.714c0.339-3.407,1.399-6.541,3.525-9.268c1.185-1.521,1.533-3.215,1.519-5.147
		c-0.074-9.76,0.014-19.521-0.076-29.279c-0.018-1.845,0.594-2.762,2.184-3.731c3.339-2.033,6.771-3.093,10.673-2.642
		c1.021,0.117,2.068,0.018,3.409,0.018c0.28,7.829-0.029,15.543,0.178,23.398c12.761,0,25.357,0,38.27,0c0-10.319,0-20.596,0-30.974
		c4.884-1.25,9.501-2.432,14.289-3.658c0-15.465,0-30.801,0-46.421c2.688-0.305,5.192-0.625,7.705-0.868
		c10.822-1.048,21.651-2.042,32.469-3.146c1.328-0.136,2.278,0.123,3.25,0.979c1.799,1.587,3.666,3.098,5.539,4.598
		c0.75,0.602,1.139,1.291,1.066,2.263c-0.047,0.636-0.007,1.279-0.007,1.919c0,26.08,0,52.159,0,78.239c0,1.021,0,2.043,0,3.188
		c0.856,0.082,1.473,0.193,2.088,0.193c14.16,0.01,28.319-0.013,42.479,0.039c1.447,0.005,2.236-0.595,3.162-1.624
		c2.896-3.224,3.774-6.83,3.666-11.166c-0.278-11.192-0.068-22.397-0.121-33.597c-0.007-1.546,0.277-2.83,1.492-3.833
		c3.393-2.802,4.981-6.406,5.268-10.803c0.19-2.931,0.943-5.825,1.494-9.024c1.617-0.349,3.292-0.708,5.064-1.09
		c3.081,4.53,6.084,8.945,9.252,13.604c0.884-1.835,0.393-3.501,0.479-5.093c0.088-1.596,0.02-3.199,0.02-4.799
		c0-1.665,0-3.329,0-5.185c2.539-0.433,4.879-0.856,7.227-1.226c6.79-1.067,13.591-2.075,20.371-3.203
		c1.161-0.192,1.978,0.052,2.842,0.75c1.99,1.608,3.984,3.221,6.071,4.699c1.3,0.921,1.81,1.966,1.791,3.589
		c-0.087,7.438-0.038,14.879-0.038,22.318c0,0.867,0,1.733,0,2.535c1.898,0.571,113.339,0.725,116.703,0.174
		c0-0.874,0-1.811,0-2.747c0-20.399,0.021-40.799-0.038-61.198c-0.005-1.825,0.346-3.3,1.847-4.364
		c2.043-1.448,2.481-3.406,2.402-5.829c-0.169-5.195-0.01-10.398-0.079-15.598c-0.019-1.354,0.306-2.271,1.598-2.854
		c0.94-0.424,1.878-0.948,2.663-1.609c2.931-2.466,6.328-2.157,9.971-1.884c0.382,3.053,0.76,6.044,1.128,9.037
		c0.604,4.919,1.245,9.834,1.774,14.762c0.132,1.234,0.605,2.041,1.607,2.735c1.773,1.229,3.434,2.622,5.205,3.855
		c1.063,0.741,1.579,1.559,1.628,2.936c0.407,11.59,0.908,23.176,1.375,34.764c0.499,12.387,0.989,24.773,1.496,37.16
		c0.028,0.685,0.169,1.364,0.304,2.396c1.086-0.66,1.893-1.131,2.68-1.633c20.164-12.853,40.283-25.776,60.531-38.496
		c3.134-1.969,6.84-3.034,10.31-4.45c0.454-0.185,1.101-0.054,1.614,0.088c3.078,0.845,6.143,1.736,9.531,2.703
		c0,2.177,0,4.369,0,6.604c5.973,1.954,11.65,3.812,17.457,5.712c0,2.526,0,4.909,0,7.618c37.057,6.157,74.011,12.11,111.154,18.27
		c0,1.032,0,1.895,0,2.758c0,73.839,0,147.678-0.003,221.518c0,0.719-0.034,1.437-0.053,2.156c-263.941,0-527.883,0-792.001,0
		C-0.028,519.999-0.028,427.999-0.028,335.999z"/>
</g>
</svg>
