<?xml version="1.0" encoding="utf-8"?>
<!-- Generator: Adobe Illustrator 16.0.0, SVG Export Plug-In . SVG Version: 6.00 Build 0)  -->
<!DOCTYPE svg PUBLIC "-//W3C//DTD SVG 1.1//EN" "http://www.w3.org/Graphics/SVG/1.1/DTD/svg11.dtd">
<svg version="1.1" id="Layer_1" xmlns="http://www.w3.org/2000/svg" xmlns:xlink="http://www.w3.org/1999/xlink" x="0px" y="0px"
	 width="792px" height="612px" viewBox="0 0 792 612" enable-background="new 0 0 792 612" xml:space="preserve">
<g>
	<path fill-rule="evenodd" clip-rule="evenodd" d="M-0.062,369.6c1.271,1.817,1.047,3.997,1.339,6.017
		c2.128,14.715,4.155,29.443,6.216,44.167c0.643,4.592,1.345,9.177,1.889,13.78c0.158,1.337,0.736,2.133,1.771,2.896
		c10.166,7.508,20.286,15.076,30.461,22.572c1.297,0.955,2.051,2.064,2.512,3.601c2.943,9.795,5.969,19.566,8.971,29.344
		c0.133,0.429,0.308,0.845,0.938,1.238c0-0.896,0-1.792,0-2.688c0-58.559,0.012-117.118-0.039-175.678
		c-0.002-2.205,0.422-4.01,1.938-5.657c1.403-1.525,2.62-3.229,3.843-4.911c0.634-0.871,1.375-1.279,2.438-1.168
		c0.396,0.042,0.8,0.006,1.199,0.006c30.561,0,61.119,0,91.68,0c0.947,0,1.895,0,3.197,0c0.013,8.252,0.006,16.29,0.006,24.328
		c0.002,8.08,0.001,16.16,0.001,24.24s0,16.16,0,24.239c0,8.08,0,16.16,0,24.24s0,16.159,0,24.239s0,16.16,0,24.24
		c0,8.069,0,16.14,0,24.303c5.448,2.575,10.784,5.097,16.242,7.677c0.074,1.295,0.148,2.596,0.259,4.531
		c2.012-2.479,3.646-4.494,5.138-6.332c0.341-0.091,0.421-0.138,0.495-0.128c3.749,0.487,3.748,0.488,5.66,3.769
		c0.758,1.302,1.525,2.599,2.567,4.373c0.164-0.984,0.31-1.453,0.311-1.922c0.017-5.439,0.057-10.88-0.019-16.319
		c-0.021-1.566,0.224-2.819,1.742-3.563c3.102-1.519,4.073-3.974,3.755-7.388c-0.311-3.329-0.067-6.71-0.067-10.364
		c5.4-2.042,10.828-4.094,16.359-6.184c0-1.152,0-2.185,0-3.217c0.001-6.48,0.044-12.961-0.032-19.439
		c-0.017-1.424,0.419-2.186,1.749-2.699c1.932-0.747,3.789-1.688,5.805-2.604c0-1.945,0-3.845,0-5.846
		c0.59-0.13,1.03-0.293,1.478-0.316c12.22-0.641,24.441-1.25,36.66-1.915c1.521-0.083,2.772,0.192,3.925,1.262
		c1.287,1.193,2.746,2.2,4.096,3.328c0.67,0.559,1.318,0.736,2.199,0.498c1.536-0.418,3.111-0.691,5.001-1.097
		c0.249,0.338,0.647,0.748,0.894,1.235c1.062,2.107,2.789,2.324,4.848,1.861c0.914-0.205,1.871-0.216,3.021-0.337
		c1.156,7.989,2.283,15.791,3.429,23.708c1.368,0.12,2.608,0.229,4.087,0.36c0,0.879,0,1.66,0,2.441
		c0,3.44,0.102,6.884-0.021,10.319c-0.247,6.905,0.484,13.724,1.444,20.544c1.102,7.832,2.039,15.688,3.442,23.567
		c0.285-2.394,0.604-4.782,0.848-7.18c0.717-7.079,1.433-14.16,2.082-21.246c0.176-1.916,0.659-3.588,2.311-4.746
		c1.234-0.866,1.49-2.068,1.486-3.542c-0.047-16.399-0.013-32.8-0.055-49.199c-0.004-1.745,0.207-3.319,1.388-4.671
		c1.666-1.906,2.159-4.113,2.04-6.639c-0.169-3.589-0.043-7.19-0.043-11.01c2.717-1.132,5.416-2.257,8.238-3.434
		c1.666,2.458,3.252,4.798,4.838,7.137c0.165-0.041,0.33-0.083,0.496-0.125c0.035-0.91,0.102-1.82,0.102-2.73
		c0.005-28.159,0.02-56.319-0.022-84.479c-0.003-2.518,0.174-4.957,1.217-7.257c1.534-3.386,1.693-6.958,1.466-10.565
		c-0.101-1.599,0.321-2.834,1.692-3.652c3.251-1.938,4.47-4.764,3.823-8.46c-0.082-0.466,0.05-0.967-0.021-1.437
		c-0.396-2.597,0.447-4.625,2.527-6.268c0.707-0.558,1.178-1.498,1.581-2.347c2.537-5.343,5.022-10.711,7.532-16.067
		c0.293-0.627,0.631-1.233,1.427-1.797c0,1.383,0,2.767,0,4.151c0.001,1.84,0.066,3.683-0.022,5.519
		c-0.059,1.218,0.451,1.922,1.469,2.467c0.985,0.527,1.949,1.115,2.843,1.783c0.548,0.409,1.223,0.958,1.356,1.553
		c0.344,1.536,1.264,2.313,2.672,2.72c0.299,0.087,0.566,0.285,0.995,0.507c0.106,0.689,0.224,1.453,0.364,2.364
		c1.867,0.631,3.742,1.264,5.638,1.904c1.639,5.547,1.737,11.204,1.579,16.949c1.347,0.427,2.539,0.805,3.889,1.234
		c0,3.577,0.072,7.086-0.031,10.591c-0.049,1.687,0.238,3.167,1.387,4.42c1.969,2.147,2.29,4.683,2.299,7.521
		c0.061,18.557,0.272,37.112,0.43,55.668c0.131,15.438,0.246,30.874,0.384,46.312c0.083,9.277,0.226,18.555,0.259,27.832
		c0.005,1.38,0.383,2.283,1.631,2.847c0.433,0.196,0.794,0.548,1.225,0.751c0.997,0.468,1.357,1.207,1.318,2.308
		c-0.07,1.917,0.041,3.842-0.037,5.759c-0.057,1.362,0.342,2.442,1.231,3.483c2.337,2.736,4.542,5.587,6.895,8.311
		c0.952,1.103,1.453,2.218,1.311,3.681c-0.1,1.019-0.02,2.055-0.02,2.948c0.323,0.22,0.449,0.38,0.576,0.382
		c2.523,0.033,4.28,1.318,5.776,3.255c1.414,1.831,3.627,3.284,4.384,5.314c0.789,2.118,0.265,4.729,0.301,7.124
		c0.018,1.181,0.003,2.361,0.003,3.738c2.506,0.226,4.793,0.536,6.416,2.478c1.38,1.65,3.961,2.258,4.236,5.24
		c0.439-0.759,0.768-1.238,1.01-1.757c2.095-4.492,4.212-8.974,6.234-13.498c0.537-1.2,1.303-1.876,2.534-2.282
		c2.879-0.951,5.72-2.018,8.729-3.093c0-22.092,0-44.151,0-66.412c3.588-1.315,7.083-2.597,10.66-3.908c0-8.269,0-16.416,0-24.806
		c7.982-2.64,15.913-5.263,23.879-7.897c1.031-21.063,2.056-41.971,3.087-63.03c3.459-0.571,6.751-1.128,10.048-1.655
		c4.499-0.719,9.012-1.354,13.495-2.155c1.396-0.25,2.693-0.261,3.989,0.241c2.51,0.973,5.088,1.138,7.765,1.02
		c6.072-0.269,12.15-0.383,18.228-0.513c0.939-0.021,1.933,0.059,2.819,0.344c6.007,1.942,11.992,3.949,17.981,5.945
		c0.443,0.147,0.859,0.377,1.457,0.643c0,3.983,0,7.959,0,11.721c6.327,1.294,12.496,2.224,18.468,3.869
		c5.908,1.628,11.618,3.978,17.574,6.065c0,16.551,0,33.003,0,49.7c1.466,0.257,2.805,0.773,4.066,0.627
		c1.101-0.129,2.273-0.834,3.11-1.611c0.514-0.476,0.581-1.562,0.627-2.386c0.099-1.755,0.049-3.518,0.072-5.277
		c0.002-0.15,0.09-0.3,0.241-0.771c1.68-0.096,3.484-0.279,5.288-0.271c1.077,0.005,1.889,1.292,1.931,2.88
		c0.048,1.828,0.011,3.658,0.011,5.933c1.525-1.656,2.418-3.056,2.389-5.031c-0.071-4.72,0.056-9.441-0.062-14.159
		c-0.047-1.875,0.312-3.244,2.209-3.954c0.657-0.245,1.225-0.73,1.956-1.183c0.906-29.301,1.812-58.617,2.721-88.01
		c0.565-0.223,1.058-0.526,1.582-0.602c1.816-0.265,3.376-0.812,4.174-2.694c0.193-0.457,0.783-0.756,1.214-1.099
		c0.184-0.145,0.441-0.192,0.642-0.321c4.646-3.009,9.67-4.181,15.234-3.749c4.294,0.333,8.636,0.014,12.954,0.102
		c1.153,0.023,2.381,0.293,3.432,0.768c3.788,1.708,7.476,3.645,11.284,5.303c1.667,0.726,2.116,1.704,2.113,3.451
		c-0.054,28.48-0.014,56.959-0.086,85.439c-0.006,2.272,0.357,4.05,2.444,5.21c1.328,0.737,1.686,1.89,1.663,3.411
		c-0.088,5.759,0.011,11.52-0.066,17.278c-0.021,1.488,0.267,2.683,1.541,3.511c2.239,1.453,2.95,3.473,2.715,6.114
		c-0.227,2.54-0.055,5.116-0.044,7.676c0.002,0.529,0.064,1.059,0.131,2.063c1.284-1.033,2.319-1.746,3.207-2.61
		c1.357-1.319,2.892-1.719,4.773-1.661c6.555,0.202,13.113,0.257,19.67,0.361c0.954,0.016,1.907,0.002,3.139,0.002
		c0.803-8.134,1.593-16.142,2.402-24.354c0.632-0.201,1.281-0.455,1.953-0.614c7.389-1.746,14.768-3.533,22.18-5.17
		c1.664-0.367,2.413-1.091,2.724-2.74c0.429-2.271,1.197-4.477,1.693-6.738c0.253-1.154,0.781-1.794,1.93-2.129
		c2.607-0.761,5.168-1.682,7.777-2.435c0.704-0.203,1.615-0.284,2.257-0.011c4.776,2.037,9.508,4.176,14.394,6.346
		c0,5.053,0,10.067,0,15.324c3.554,1.336,7.021,2.639,10.886,4.091c0-1.283-0.001-2.143,0-3.003c0-4.16,0.062-8.321-0.033-12.479
		c-0.032-1.439,0.506-2.123,1.787-2.666c3.752-1.592,7.418-3.389,11.183-4.948c1.478-0.612,2.028-1.441,2.084-3.023
		c0.311-8.873,0.706-17.742,1.102-26.611c0.752-16.858,1.523-33.717,2.293-50.575c0.021-0.467,0.116-0.93,0.195-1.531
		c7.442-1.331,14.817-2.649,22.398-4.005c0.059,0.872,0.116,1.568,0.146,2.266c0.021,0.479,0.004,0.959,0.004,1.439
		c0,111.599,0.001,223.197-0.005,334.796c0,1.113-0.074,2.227-0.113,3.341c-264.001,0-528.001,0-792.001,0
		C-0.062,531.161-0.062,450.381-0.062,369.6z"/>
</g>
</svg>
