<?xml version="1.0" encoding="utf-8"?>
<!-- Generator: Adobe Illustrator 16.0.0, SVG Export Plug-In . SVG Version: 6.00 Build 0)  -->
<!DOCTYPE svg PUBLIC "-//W3C//DTD SVG 1.1//EN" "http://www.w3.org/Graphics/SVG/1.1/DTD/svg11.dtd">
<svg version="1.1" id="Layer_1" xmlns="http://www.w3.org/2000/svg" xmlns:xlink="http://www.w3.org/1999/xlink" x="0px" y="0px"
	 width="792px" height="612px" viewBox="0 0 792 612" enable-background="new 0 0 792 612" xml:space="preserve">
<g>
	<path fill-rule="evenodd" clip-rule="evenodd" fill="#3F3E44" d="M0,317.279c2.783,0,5.566,0,8.598,0
		c0.084,2.981,0.16,5.727,0.24,8.582c1.828,0,3.398,0,5.172,0c2.133-9.789,4.254-19.52,6.375-29.249
		c2.28,4.442,3.463,9.199,5.301,13.845c1.088,0.104,2.172,0.206,3.486,0.331c0,3.971,0,7.859,0,11.931
		c1.301,0.147,2.383,0.27,3.68,0.415c1.15,2.871,2.331,5.812,3.543,8.833c0.704,0.064,1.322,0.164,1.941,0.169
		c2.32,0.02,4.645,0.104,6.959-0.009c7.561-0.371,14.99,0.767,22.438,1.778c9.028,1.228,18.063,2.406,27.096,3.602
		c9.033,1.196,18.068,2.383,27.102,3.579c9.111,1.206,18.229,2.383,27.332,3.644c5.393,0.746,10.781,1.422,16.242,1.19
		c0.466-0.02,0.938,0.104,1.708,0.198c0,2.702,0,5.374,0,8.321c1.442,0.078,2.597,0.164,3.752,0.196
		c1.112,0.031,2.226,0.007,3.506,0.007c0.901,2.215,1.768,4.344,2.635,6.473c0.271,0.666,0.543,1.332,0.818,1.996
		c0.733,1.771,1.46,3.544,2.218,5.304c0.084,0.194,0.334,0.348,0.541,0.453c2.266,1.157,4.539,2.301,7.113,3.603
		c1.525-5.426,2.32-10.773,3.781-16.308c15.375,1.011,30.73,2.021,46.285,3.045c1.052,3.11,2.093,6.189,3.156,9.335
		c3.76,0,7.407,0,11.308,0c0.051-1.039,0.136-1.968,0.136-2.897c0.009-14.079,0.037-28.159-0.029-42.238
		c-0.01-1.87,0.496-2.945,2.189-3.98c3.121-1.911,6.137-2.793,9.91-2.225c6.79,1.023,13.668,1.465,20.508,2.157
		c0.23,0.023,0.451,0.129,0.904,0.266c0.404,3.711-0.078,7.531,0.294,11.569c4.214-0.414,8.222-0.809,12.431-1.223
		c0-3.057,0.105-5.851-0.039-8.632c-0.086-1.682,0.521-2.575,1.988-3.348c3.555-1.872,3.059-0.91,3.305-5.23
		c0.73-12.854,1.5-25.706,2.246-38.558c0.511-8.782,1.006-17.565,1.514-26.347c0.046-0.781,0.135-1.559,0.218-2.488
		c6.882,0,13.63,0,20.549,0c0.578,3.156,1.081,6.219,1.72,9.254c0.309,1.469,0.697,2.97,1.35,4.31
		c8.293,17.035,16.664,34.031,24.936,51.075c0.752,1.551,1.602,2.159,3.293,1.951c1.812-0.223,3.65-0.219,5.74-0.327
		c0.048,0.952,0.118,1.721,0.12,2.489c0.011,4.319-0.019,8.64,0.023,12.959c0.01,1.024,0.022,2.138,0.407,3.054
		c2.78,6.635,3.09,13.66,3.447,20.688c0.127,2.476,0.355,4.946,0.46,7.422c0.04,0.964,0.378,1.629,1.138,2.228
		c2.586,2.038,5.232,3.866,8.515,4.717c2.934,0.76,5.776,1.866,8.665,2.802c0.522,0.169,1.072,0.251,1.947,0.451
		c0.037-1.063,0.096-1.973,0.096-2.882c0.006-17.92,0.036-35.839-0.037-53.758c-0.01-2.103,0.305-3.73,2.365-4.671
		c1.113-0.508,1.488-1.456,1.674-2.679c1.306-8.617,2.736-17.22,2.189-25.988c-0.105-1.671,0.251-3.123,1.268-4.477
		c0.863-1.148,1.63-2.379,2.328-3.635c0.641-1.151,1.451-1.787,2.836-1.756c2.714,0.06,5.431,0.018,8.429,0.018
		c1.245,3.5,3.488,6.962,2.939,11.161c-0.438,3.356,0.442,6.122,3.123,8.254c2.604,2.07,3.144,4.762,3.104,8.019
		c-0.168,13.677,0.011,27.358-0.109,41.037c-0.051,5.782,0.597,11.491,1.144,17.217c0.7,7.321,1.476,14.636,2.228,21.951
		c0.268,2.604,0.561,5.204,0.851,7.889c3.66,0,7.059,0,10.733,0c0-12.514,0-24.87,0-37.361c3.305-0.548,6.354-1.118,9.428-1.512
		c0.677-0.087,1.544,0.305,2.133,0.735c1.807,1.321,3.513,2.777,5.272,4.163c0.608,0.479,1.26,0.903,2.148,1.535
		c0.438-1.638,0.83-2.985,1.155-4.349c3.119-13.057,6.247-26.111,9.313-39.181c0.38-1.616,0.576-3.313,0.583-4.974
		c0.047-12.64,0.025-25.279,0.025-37.919c0-1.028,0-2.056,0-3.409c8.38-0.575,16.531-1.134,24.957-1.711c0,15.062,0,29.825,0,44.777
		c9.574,2.572,18.96,5.093,28.686,7.706c0.478-3.507,0.01-6.843,0.315-10.24c1.447-0.6,2.826-1.216,4.242-1.732
		c0.415-0.15,0.975-0.141,1.398,0.002c3.32,1.112,6.623,2.275,10.067,3.47c0,2.932,0.074,5.723-0.03,8.507
		c-0.055,1.459,0.336,2.518,1.732,3.014c3.364,1.193,4.713,3.583,4.718,7.096c0.003,2.139,0.529,4.277,0.821,6.415
		c0.253,1.855,0.317,1.937,2.24,2.047c0.947,0.055,1.901,0.01,3.185,0.01c0.187-12.958-0.034-25.866,0.121-38.962
		c2.068-0.247,3.951-0.498,5.84-0.69c5.169-0.526,10.345-0.998,15.511-1.558c1.659-0.18,3.1,0.091,4.551,0.984
		c3.062,1.885,6.176,3.7,9.358,5.375c1.563,0.822,2.037,1.854,2.032,3.587c-0.059,21.839-0.039,43.679-0.039,65.519
		c0,0.938,0,1.877,0,3.174c23.893-3.807,47.438-7.559,71.163-11.338c1.599-29.38,3.186-58.51,4.778-87.77
		c0.599-0.24,1.154-0.524,1.742-0.689c6.538-1.843,13.073-3.695,19.629-5.469c0.963-0.26,2.1-0.382,3.042-0.135
		c7.654,1.999,15.281,4.1,22.915,6.178c0.223,0.061,0.422,0.21,0.91,0.461c0.797,35.733,1.598,71.595,2.406,107.857
		c13.974-2.983,27.622-6.077,41.411-9.156c2.619-16.714,5.216-33.281,7.858-50.147c10.211-2.546,20.467-5.104,31.013-7.733
		c0,100.675,0,200.979,0,301.282C528.059,612,264.116,612,0,612C0,513.76,0,415.52,0,317.279z"/>
</g>
</svg>
