<?xml version="1.0" encoding="utf-8"?>
<!-- Generator: Adobe Illustrator 16.0.0, SVG Export Plug-In . SVG Version: 6.00 Build 0)  -->
<!DOCTYPE svg PUBLIC "-//W3C//DTD SVG 1.1//EN" "http://www.w3.org/Graphics/SVG/1.1/DTD/svg11.dtd">
<svg version="1.1" id="Layer_1" xmlns="http://www.w3.org/2000/svg" xmlns:xlink="http://www.w3.org/1999/xlink" x="0px" y="0px"
	 width="792px" height="612px" viewBox="0 0 792 612" enable-background="new 0 0 792 612" xml:space="preserve">
<g>
	<path fill-rule="evenodd" clip-rule="evenodd" fill="#E0E0E0" d="M789.738,224.652c0.165-0.003,0.33-0.007,0.495-0.01
		c0,9.439,0,18.88,0,28.32c-0.341,0.14-0.604,0.05-0.791-0.268c-0.478-0.883-0.446-1.853-0.448-2.808
		c-0.019-7.349-0.018-14.698,0-22.047C788.997,226.728,788.918,225.58,789.738,224.652z"/>
	<path fill-rule="evenodd" clip-rule="evenodd" fill="#FEFEFE" d="M789.718,252.935c0.172,0.009,0.344,0.018,0.516,0.026
		c0,0.16,0,0.32,0,0.48c-0.807-0.11-1.711,0.302-2.399-0.445C788.443,252.395,789.073,252.461,789.718,252.935z"/>
	<path fill-rule="evenodd" clip-rule="evenodd" fill="#A2A2A2" d="M789.718,252.935c-0.628,0.02-1.256,0.041-1.884,0.061
		c-0.453-0.021-0.906-0.042-1.359-0.062c-1.256-0.576-2.648,0.126-3.907-0.418c-0.458-0.021-0.915-0.041-1.373-0.062
		c-1.256-0.575-2.647,0.124-3.906-0.417c-0.46-0.021-0.92-0.041-1.379-0.061c-1.254-0.58-2.645,0.124-3.901-0.419
		c-0.46-0.021-0.919-0.041-1.379-0.061c-1.253-0.58-2.644,0.124-3.901-0.419c-0.462-0.02-0.924-0.039-1.386-0.059
		c-1.25-0.584-2.64,0.121-3.894-0.42c-0.462-0.021-0.924-0.04-1.386-0.06c-1.251-0.584-2.64,0.121-3.895-0.42
		c-0.606-0.026-1.213-0.051-1.82-0.076c-1.107-0.527-2.349,0.106-3.458-0.401c-0.607-0.026-1.215-0.053-1.821-0.079
		c-1.107-0.526-2.35,0.106-3.459-0.401c-0.607-0.027-1.214-0.053-1.821-0.079c-1.271-0.555-2.677,0.146-3.946-0.421
		c-0.447-0.019-0.895-0.037-1.342-0.056c-1.268-0.562-2.672,0.146-3.938-0.424c-0.447-0.019-0.895-0.037-1.342-0.056
		c-1.268-0.56-2.669,0.141-3.937-0.42c-0.448-0.02-0.896-0.04-1.345-0.059c-1.268-0.561-2.669,0.141-3.936-0.421
		c-0.448-0.02-0.896-0.04-1.345-0.059c-1.267-0.56-2.667,0.137-3.935-0.418c-0.451-0.02-0.902-0.04-1.354-0.059
		c-1.264-0.567-2.662,0.136-3.926-0.421c-0.451-0.02-0.903-0.04-1.354-0.059c-1.263-0.567-2.662,0.136-3.926-0.421
		c-0.443-0.023-0.887-0.046-1.33-0.068c-0.782-0.476-1.738,0.084-2.515-0.423c-0.281-0.019-0.563-0.038-0.845-0.058
		c-0.782-0.476-1.738,0.085-2.515-0.423c-0.282-0.019-0.563-0.038-0.846-0.057c-0.782-0.475-1.738,0.085-2.515-0.422
		c-0.282-0.019-0.563-0.038-0.846-0.058c-0.781-0.476-1.738,0.085-2.515-0.423c-0.281-0.019-0.563-0.038-0.845-0.057
		c-0.782-0.476-1.738,0.084-2.515-0.423c-0.282-0.019-0.563-0.038-0.846-0.057c-0.782-0.476-1.738,0.085-2.515-0.423
		c-0.282-0.019-0.563-0.038-0.845-0.057c-0.782-0.476-1.739,0.084-2.516-0.423c-0.281-0.019-0.563-0.038-0.845-0.057
		c-0.782-0.476-1.738,0.085-2.515-0.423c-0.282-0.019-0.563-0.038-0.846-0.057c-0.782-0.476-1.738,0.084-2.515-0.423
		c-0.282-0.019-0.563-0.038-0.845-0.057c-0.782-0.476-1.739,0.084-2.516-0.423l-0.215-0.055l-0.221,0.023
		c-0.909-0.579-2.018,0.119-2.927-0.455l-0.21-0.054l-0.215,0.026c-0.914-0.572-2.021,0.119-2.936-0.452l-0.21-0.054l-0.214,0.026
		c-0.914-0.572-2.022,0.119-2.937-0.452l-0.209-0.054l-0.215,0.026c-0.914-0.572-2.022,0.119-2.936-0.452l-0.21-0.054l-0.215,0.025
		c-0.914-0.571-2.021,0.12-2.936-0.452l-0.21-0.054l-0.214,0.025c-0.914-0.571-2.022,0.12-2.937-0.452l-0.209-0.054l-0.215,0.025
		c-0.914-0.571-2.022,0.12-2.936-0.452l-0.21-0.053l-0.215,0.025c-0.913-0.571-2.021,0.12-2.936-0.452l-0.209-0.053l-0.215,0.025
		c-0.914-0.571-2.022,0.12-2.937-0.452l-0.209-0.054l-0.215,0.026c-1.245-0.602-2.643,0.14-3.891-0.439
		c-0.451-0.018-0.902-0.035-1.354-0.053c-1.261-0.561-2.652,0.12-3.918-0.408c-0.611-0.025-1.224-0.049-1.836-0.074
		c-1.264-0.558-2.658,0.124-3.926-0.409c-0.607-0.025-1.216-0.049-1.823-0.074c-1.27-0.55-2.666,0.128-3.938-0.408
		c-0.462-0.019-0.925-0.038-1.387-0.057c-1.413-0.601-2.957,0.138-4.374-0.425c-0.459-0.02-0.918-0.039-1.377-0.058
		c-1.417-0.597-2.966,0.146-4.385-0.428c-0.455-0.019-0.911-0.037-1.366-0.055c-1.158-0.326-2.315-0.372-3.471,0.012l0.02-0.014
		c-0.366,0.475-1.057,0.05-1.426,0.515l-0.006,0.003c-0.3,0.271-0.735,0.217-1.056,0.438c-0.145-0.022-0.278,0.006-0.402,0.085
		c-0.28,0.229-0.696,0.15-0.961,0.419l0.014-0.007c-0.299,0.304-0.743,0.257-1.088,0.449l-0.186-0.004l-0.17,0.076
		c-0.277,0.263-0.705,0.183-0.987,0.433l0.025-0.016c-0.365,0.487-1.058,0.064-1.436,0.517l0.004-0.001
		c-0.301,0.286-0.739,0.236-1.072,0.442c-0.138-0.024-0.264,0.002-0.38,0.081c-0.279,0.244-0.7,0.165-0.974,0.424l0.02-0.012
		c-0.298,0.317-0.745,0.274-1.101,0.455l-0.177-0.008l-0.16,0.074c-0.291,0.28-0.731,0.204-1.044,0.435
		c-0.146-0.02-0.283,0.009-0.409,0.087c-0.281,0.224-0.695,0.145-0.956,0.418l0.011-0.006c-0.301,0.298-0.742,0.251-1.086,0.446
		l-0.188-0.002l-0.172,0.077c-0.277,0.257-0.703,0.177-0.983,0.431l0.024-0.015c-0.366,0.482-1.058,0.059-1.433,0.516h0.001
		c-0.299,0.281-0.736,0.228-1.062,0.443c-0.141-0.024-0.271,0.002-0.392,0.08c-0.279,0.241-0.699,0.161-0.97,0.424l0.018-0.01
		c-0.299,0.312-0.744,0.269-1.097,0.453l-0.18-0.005l-0.163,0.075c-0.277,0.27-0.706,0.189-0.992,0.436l0.027-0.017
		c-0.366,0.492-1.059,0.073-1.442,0.516l0.01-0.005c-0.297,0.298-0.739,0.247-1.077,0.449h-0.193l-0.178,0.077
		c-0.278,0.252-0.702,0.172-0.979,0.429l0.022-0.014c-0.366,0.477-1.057,0.053-1.429,0.515l-0.004,0.001
		c-0.3,0.275-0.735,0.223-1.06,0.44c-0.143-0.022-0.274,0.005-0.396,0.083c-0.281,0.234-0.698,0.156-0.966,0.42l0.016-0.009
		c-0.299,0.309-0.743,0.264-1.092,0.452l-0.183-0.005l-0.167,0.075c-0.276,0.267-0.705,0.187-0.989,0.436l0.026-0.017
		c-0.364,0.49-1.059,0.067-1.437,0.519l0.005-0.003c-0.302,0.288-0.74,0.24-1.077,0.442c-0.135-0.026-0.26,0-0.373,0.078
		c-0.278,0.25-0.702,0.17-0.977,0.428l0.021-0.013c-0.371,0.473-1.059,0.055-1.436,0.51l0.002-0.001
		c-0.793,0.375-1.591,0.334-2.391,0.026c-1.253-0.019-2.506-0.037-3.759-0.056c-2.673-0.492-5.37-0.078-8.052-0.221
		c-0.862-0.045-1.746,0.183-2.584-0.191c-1.26-0.021-2.52-0.042-3.779-0.063c-2.751-0.476-5.525-0.086-8.285-0.227
		c-0.94-0.048-1.904,0.203-2.819-0.199c-1.253-0.02-2.507-0.04-3.76-0.06c-2.673-0.491-5.37-0.078-8.052-0.221
		c-0.862-0.045-1.747,0.182-2.585-0.19c-1.261-0.021-2.521-0.042-3.782-0.062c-2.749-0.479-5.522-0.087-8.281-0.228
		c-0.939-0.048-1.902,0.199-2.818-0.195c-1.255-0.021-2.511-0.042-3.766-0.062c-2.756-0.468-5.534-0.084-8.298-0.224
		c-0.94-0.047-1.905,0.208-2.82-0.203c-1.567-0.02-3.135-0.04-4.703-0.061c-3.211-0.598-6.479,0.167-9.692-0.409
		c-1.258-0.021-2.516-0.042-3.774-0.062c-2.752-0.474-5.528-0.085-8.289-0.226c-0.94-0.048-1.904,0.205-2.819-0.2
		c-1.254-0.02-2.507-0.039-3.76-0.058c-2.673-0.492-5.37-0.078-8.052-0.221c-0.862-0.045-1.746,0.183-2.585-0.191
		c-1.261-0.021-2.521-0.042-3.782-0.062c-2.75-0.479-5.524-0.087-8.283-0.228c-0.939-0.048-1.902,0.203-2.817-0.199
		c-1.254-0.02-2.507-0.04-3.76-0.06c-2.673-0.492-5.37-0.079-8.052-0.22c-0.862-0.046-1.746,0.181-2.585-0.19
		c-1.263-0.02-2.526-0.041-3.789-0.061c-2.748-0.483-5.52-0.088-8.276-0.23c-0.939-0.048-1.901,0.199-2.817-0.195
		c-1.255-0.021-2.51-0.041-3.765-0.062c-2.075-0.625-4.25,0.193-6.323-0.44l-0.202-0.058l-0.209,0.021
		c-0.592-0.46-1.381,0.014-1.979-0.417c-0.286-0.026-0.572-0.052-0.858-0.079c-0.617-0.427-1.42,0.036-2.03-0.424l-0.206-0.059
		l-0.214,0.021c-0.587-0.467-1.373,0.009-1.97-0.415c-0.292-0.026-0.583-0.052-0.875-0.078c-0.608-0.438-1.405,0.028-2.011-0.42
		l-0.217-0.059l-0.224,0.018c-0.742-0.549-1.708,0.092-2.45-0.461l-0.193-0.056l-0.199,0.023c-0.6-0.449-1.393,0.021-1.994-0.417
		c-0.282-0.026-0.564-0.051-0.846-0.077c-0.623-0.417-1.428,0.04-2.043-0.423l-0.205-0.057l-0.211,0.021
		c-0.589-0.465-1.377,0.013-1.974-0.417c-0.288-0.026-0.576-0.052-0.864-0.078c-0.613-0.432-1.415,0.033-2.023-0.423l-0.209-0.059
		l-0.217,0.02c-0.585-0.471-1.367,0.005-1.963-0.412c-0.295-0.027-0.589-0.054-0.883-0.081c-0.605-0.444-1.402,0.027-2.006-0.422
		l-0.217-0.059L365,237.104c-0.741-0.548-1.702,0.086-2.444-0.457l-0.197-0.058l-0.204,0.022c-0.597-0.454-1.388,0.017-1.988-0.417
		c-0.284-0.026-0.567-0.052-0.853-0.078c-0.619-0.422-1.424,0.039-2.035-0.423l-0.207-0.058l-0.213,0.021
		c-0.587-0.467-1.374,0.011-1.971-0.416c-0.289-0.026-0.578-0.053-0.869-0.079c-0.611-0.434-1.41,0.031-2.018-0.421l-0.216-0.058
		l-0.223,0.019c-0.741-0.549-1.709,0.094-2.449-0.463l-0.19-0.057l-0.197,0.024c-0.604-0.444-1.396,0.021-2-0.416
		c-0.282-0.025-0.564-0.051-0.846-0.077c-0.623-0.418-1.43,0.042-2.043-0.425l-0.201-0.058l-0.209,0.021
		c-0.592-0.46-1.381,0.014-1.979-0.416c-0.286-0.026-0.572-0.053-0.858-0.079c-0.617-0.427-1.42,0.037-2.029-0.424l-0.207-0.059
		l-0.214,0.021c-0.587-0.467-1.374,0.009-1.97-0.415c-0.292-0.026-0.584-0.052-0.875-0.078c-0.608-0.438-1.405,0.028-2.012-0.42
		l-0.217-0.059l-0.223,0.018c-0.742-0.549-1.709,0.092-2.449-0.461l-0.193-0.056l-0.201,0.024c-0.6-0.45-1.392,0.02-1.994-0.417
		c-0.283-0.025-0.566-0.05-0.852-0.075c-0.619-0.423-1.424,0.04-2.035-0.425l-0.205-0.057l-0.212,0.021
		c-0.589-0.465-1.377,0.013-1.974-0.417c-0.288-0.026-0.576-0.052-0.865-0.078c-0.613-0.432-1.414,0.033-2.022-0.423l-0.21-0.059
		l-0.217,0.021c-2.871-0.643-5.814,0.171-8.688-0.427c-1.098-0.02-2.195-0.04-3.293-0.059c-3.201-0.612-6.463,0.156-9.666-0.418
		c-1.099-0.02-2.198-0.041-3.297-0.061c-3.2-0.617-6.461,0.158-9.662-0.417c-1.1-0.021-2.201-0.042-3.301-0.062
		c-3.199-0.621-6.459,0.159-9.658-0.418c-1.104-0.02-2.207-0.04-3.309-0.06c-3.196-0.63-6.454,0.163-9.652-0.419
		c-1.565-0.026-3.131-0.053-4.697-0.079c-2.895-0.587-5.854,0.175-8.748-0.416c-1.093-0.019-2.186-0.037-3.278-0.055
		c-2.354-0.486-4.735-0.076-7.1-0.22c-0.86-0.053-1.747,0.192-2.581-0.202c-1.093-0.019-2.186-0.039-3.279-0.058
		c-3.206-0.614-6.473,0.173-9.68-0.421c-1.095-0.019-2.189-0.039-3.285-0.058c-0.919-0.424-1.893-0.207-2.838-0.207
		c-70.144-0.012-140.287-0.01-210.432-0.026c-0.934,0-1.918,0.282-2.811-0.262l0.037,0.037c-0.599-2.716-0.123-5.469-0.273-8.2
		c-0.054-0.98,0.529-1.147,1.348-1.159c0.773-0.011,1.578,0.201,2.318-0.208c7.354-0.059,14.704,0.05,22.058-0.345
		c5.347-0.287,10.722-0.009,16.071-0.249c8.15-0.365,16.312-0.168,24.453-0.532c7.193-0.322,14.393-0.083,21.574-0.459
		c7.512-0.394,15.033-0.093,22.533-0.489c7.672-0.405,15.354-0.076,23.012-0.482c7.195-0.382,14.398-0.077,21.577-0.479
		c7.273-0.406,14.555-0.082,21.815-0.471c7.432-0.399,14.873-0.096,22.293-0.485c7.353-0.387,14.709-0.168,22.055-0.471
		c2.952-0.122,5.906-0.419,8.855-0.262c7.828,0.418,15.673,0.156,23.492,0.53c6.876,0.329,13.753,0.116,20.619,0.43
		c8.309,0.379,16.63,0.182,24.931,0.551c6.874,0.305,13.753,0.083,20.614,0.428c7.512,0.378,15.033,0.126,22.533,0.503
		c6.236,0.313,12.469,0.248,18.701,0.37c1.136,0.022,2.223,0.218,3.309,0.474c8.389,1.976,16.779,3.941,25.156,5.964
		c1.726,0.417,3.387,0.583,5.183,0.394c3.013-0.317,6.057-0.301,9.088-0.508c7.33-0.5,14.682-0.689,22.015-1.148
		c8.849-0.553,17.709-0.899,26.551-1.503c9.019-0.617,18.028-1.102,27.062-0.734c9.98,0.406,19.966,0.638,29.945,1.018
		c4.232,0.161,8.467,0.202,12.697,0.381c10.619,0.451,21.245,0.697,31.866,1.059c4.472,0.152,8.946,0.205,13.416,0.39
		c10.699,0.444,21.41,0.625,32.104,1.09c5.241,0.228,10.331-0.607,15.487-0.963c4.139-0.286,8.265-0.751,12.394-1.156
		c5.876-0.577,11.758-1.104,17.621-1.784c3.308-0.384,6.538,0.052,9.782,0.479c6.879,0.905,13.753,1.844,20.627,2.788
		c5.216,0.716,10.426,1.465,15.64,2.193c2.606,0.364,5.217,0.706,7.824,1.071c0.899,0.126,1.76-0.028,2.586-0.348
		c4.316-1.672,8.804-1.307,13.224-0.867c3.021,0.301,6.053,0.379,9.073,0.668c6.038,0.576,12.113,0.75,18.169,1.165
		c5.493,0.375,10.979,0.857,16.471,1.272c0.876,0.066,1.759,0.038,2.639,0.04c9.678,0.022,19.356,0.042,29.034,0.062
		C789.731,234.08,789.725,243.507,789.718,252.935z"/>
	<path fill-rule="evenodd" clip-rule="evenodd" fill="#FEFEFE" d="M0.159,224.597c13.755,0.006,27.51,0.016,41.264,0.017
		c54.619,0.002,109.236-0.001,163.855,0.005c2.878,0,5.757,0.054,8.635,0.107c0.786,0.015,1.611-0.136,2.326,0.366
		c-0.799,0.01-1.598,0.029-2.396,0.029c-70.249,0.001-140.498,0.003-210.746-0.019C2.115,225.101,1.001,225.543,0.159,224.597z"/>
	<path fill-rule="evenodd" clip-rule="evenodd" fill="#FEFEFE" d="M3.589,215.068c-0.137,0.078-0.264,0.18-0.41,0.229
		c-0.896,0.296-2.085-0.297-2.718,0.443c-0.745,0.872-0.29,2.127-0.312,3.211c-0.039,1.893,0.026,3.789,0.048,5.684
		c-0.551-0.357-0.523-0.921-0.523-1.474c0-2.126-0.029-4.253,0.011-6.378c0.03-1.63,0.11-1.681,1.78-1.735
		C2.171,215.024,2.88,215.059,3.589,215.068z"/>
	<path fill-rule="evenodd" clip-rule="evenodd" fill="#FEFEFE" d="M536.805,247.229c3.251,0.027,6.501,0.053,9.751,0.082
		c0.478,0.004,0.955,0.021,1.354,0.344c-3.029,0.009-6.059,0.028-9.089,0.018C538.128,247.671,537.365,247.877,536.805,247.229z"/>
	<path fill-rule="evenodd" clip-rule="evenodd" fill="#FEFEFE" d="M507.526,246.273c3.249,0.025,6.498,0.05,9.748,0.078
		c0.477,0.004,0.954,0.019,1.352,0.345c-3.027,0.008-6.056,0.027-9.083,0.017C508.85,246.711,508.089,246.917,507.526,246.273z"/>
	<path fill-rule="evenodd" clip-rule="evenodd" fill="#FEFEFE" d="M492.643,245.785c3.254,0.027,6.507,0.053,9.761,0.083
		c0.478,0.004,0.955,0.026,1.356,0.343c-3.033,0.01-6.066,0.03-9.1,0.022C493.966,246.231,493.202,246.438,492.643,245.785z"/>
	<path fill-rule="evenodd" clip-rule="evenodd" fill="#FEFEFE" d="M463.364,244.828c3.251,0.027,6.503,0.052,9.754,0.081
		c0.478,0.005,0.955,0.023,1.354,0.345c-3.03,0.009-6.062,0.029-9.093,0.02C464.687,245.271,463.924,245.478,463.364,244.828z"/>
	<path fill-rule="evenodd" clip-rule="evenodd" fill="#FEFEFE" d="M404.806,242.913c3.248,0.026,6.496,0.051,9.744,0.078
		c0.477,0.004,0.954,0.017,1.349,0.348c-3.025,0.007-6.051,0.025-9.077,0.015C406.129,243.351,405.368,243.557,404.806,242.913z"/>
	<path fill-rule="evenodd" clip-rule="evenodd" fill="#FEFEFE" d="M434.085,243.87c3.249,0.027,6.499,0.052,9.749,0.081
		c0.477,0.004,0.954,0.02,1.352,0.346c-3.028,0.008-6.057,0.027-9.086,0.017C435.407,244.311,434.646,244.518,434.085,243.87z"/>
	<path fill-rule="evenodd" clip-rule="evenodd" fill="#FEFEFE" d="M551.688,247.718c3.093,0.021,6.186,0.041,9.279,0.065
		c0.477,0.004,0.954,0.035,1.356,0.347c-2.951,0.01-5.902,0.026-8.854,0.026C552.847,248.157,552.176,248.293,551.688,247.718z"/>
	<path fill-rule="evenodd" clip-rule="evenodd" fill="#FEFEFE" d="M522.408,246.759c3.093,0.021,6.186,0.042,9.279,0.067
		c0.478,0.004,0.954,0.032,1.356,0.345c-2.951,0.01-5.902,0.026-8.854,0.026C523.567,247.197,522.896,247.333,522.408,246.759z"/>
	<path fill-rule="evenodd" clip-rule="evenodd" fill="#FEFEFE" d="M419.688,243.399c3.093,0.022,6.186,0.043,9.279,0.069
		c0.477,0.004,0.954,0.028,1.356,0.342c-2.95,0.01-5.901,0.026-8.853,0.027C420.848,243.837,420.177,243.974,419.688,243.399z"/>
	<path fill-rule="evenodd" clip-rule="evenodd" fill="#FEFEFE" d="M448.968,244.358c3.094,0.022,6.187,0.042,9.279,0.067
		c0.478,0.004,0.954,0.032,1.356,0.344c-2.95,0.01-5.901,0.026-8.854,0.027C450.127,244.797,449.456,244.934,448.968,244.358z"/>
	<path fill-rule="evenodd" clip-rule="evenodd" fill="#FEFEFE" d="M219.524,225.149c2.774,0.023,5.549,0.043,8.324,0.07
		c0.477,0.004,0.953,0.041,1.354,0.351c-2.633,0.01-5.267,0.026-7.899,0.026C220.679,225.597,220.008,225.731,219.524,225.149z"/>
	<path fill-rule="evenodd" clip-rule="evenodd" fill="#FEFEFE" d="M478.247,245.316c2.78,0.015,5.561,0.031,8.341,0.045
		c0.482,0.003,0.953,0.046,1.351,0.363c-2.635,0.012-5.271,0.031-7.907,0.032C479.407,245.757,478.734,245.894,478.247,245.316z"/>
	<path fill-rule="evenodd" clip-rule="evenodd" fill="#FEFEFE" d="M297.767,228.036c2.771,0.021,5.543,0.042,8.314,0.067
		c0.477,0.004,0.953,0.031,1.352,0.351c-2.549,0.009-5.099,0.03-7.648,0.02C299.091,228.47,298.331,228.678,297.767,228.036z"/>
	<path fill-rule="evenodd" clip-rule="evenodd" fill="#FEFEFE" d="M284.808,227.558c2.771,0.022,5.541,0.042,8.311,0.067
		c0.477,0.004,0.953,0.027,1.351,0.35c-2.548,0.009-5.095,0.03-7.644,0.018C286.133,227.99,285.372,228.197,284.808,227.558z"/>
	<path fill-rule="evenodd" clip-rule="evenodd" fill="#FEFEFE" d="M271.849,227.078c2.77,0.023,5.539,0.044,8.309,0.07
		c0.475,0.004,0.953,0.022,1.348,0.348c-2.546,0.008-5.093,0.029-7.641,0.017C273.173,227.51,272.413,227.717,271.849,227.078z"/>
	<path fill-rule="evenodd" clip-rule="evenodd" fill="#FEFEFE" d="M258.888,226.6c2.769,0.022,5.537,0.042,8.305,0.068
		c0.475,0.004,0.953,0.019,1.347,0.351c-2.545,0.007-5.09,0.027-7.635,0.015C260.212,227.03,259.453,227.236,258.888,226.6z"/>
	<path fill-rule="evenodd" clip-rule="evenodd" fill="#FEFEFE" d="M232.483,225.628c2.775,0.023,5.55,0.044,8.324,0.07
		c0.479,0.005,0.953,0.043,1.355,0.352c-2.633,0.01-5.268,0.026-7.9,0.027C233.638,226.077,232.966,226.211,232.483,225.628z"/>
	<path fill-rule="evenodd" clip-rule="evenodd" fill="#FEFEFE" d="M310.726,228.513c2.451,0.016,4.903,0.031,7.354,0.047
		c0.479,0.003,0.95,0.034,1.333,0.38c-2.226,0.007-4.451,0.027-6.676,0.013C312.046,228.949,311.286,229.156,310.726,228.513z"/>
	<path fill-rule="evenodd" clip-rule="evenodd" fill="#FEFEFE" d="M245.442,226.105c2.918,0.091,5.86-0.348,8.747,0.416
		c-2.337,0.013-4.677,0.033-7.015,0.037C246.563,226.559,245.909,226.677,245.442,226.105z"/>
	<path fill-rule="evenodd" clip-rule="evenodd" fill="#FEFEFE" d="M394.718,242.411c2.104,0.199,4.255-0.289,6.322,0.44
		c-1.597,0.01-3.194,0.022-4.792,0.029C395.69,242.883,395.117,242.928,394.718,242.411z"/>
	<path fill-rule="evenodd" clip-rule="evenodd" fill="#FEFEFE" d="M616.966,234.273c1.469,0.034,2.969-0.265,4.373,0.425
		C619.881,234.565,618.354,235.134,616.966,234.273z"/>
	<path fill-rule="evenodd" clip-rule="evenodd" fill="#FEFEFE" d="M611.204,233.787c1.471,0.042,2.976-0.262,4.384,0.428
		C614.126,234.087,612.595,234.657,611.204,233.787z"/>
	<path fill-rule="evenodd" clip-rule="evenodd" fill="#FEFEFE" d="M766.728,251.076c1.312,0.037,2.659-0.267,3.9,0.419
		C769.33,251.337,767.947,251.968,766.728,251.076z"/>
	<path fill-rule="evenodd" clip-rule="evenodd" fill="#FEFEFE" d="M761.448,250.598c1.308,0.043,2.654-0.269,3.894,0.42
		C764.046,250.856,762.665,251.488,761.448,250.598z"/>
	<path fill-rule="evenodd" clip-rule="evenodd" fill="#FEFEFE" d="M639.521,236.182c1.308,0.048,2.658-0.285,3.891,0.439
		C642.118,236.454,640.731,237.101,639.521,236.182z"/>
	<path fill-rule="evenodd" clip-rule="evenodd" fill="#FEFEFE" d="M756.168,250.118c1.308,0.043,2.654-0.269,3.894,0.42
		C758.767,250.376,757.385,251.008,756.168,250.118z"/>
	<path fill-rule="evenodd" clip-rule="evenodd" fill="#FEFEFE" d="M772.008,251.556c1.312,0.037,2.659-0.266,3.9,0.419
		C774.61,251.817,773.228,252.448,772.008,251.556z"/>
	<path fill-rule="evenodd" clip-rule="evenodd" fill="#FEFEFE" d="M634.249,235.721c1.316,0.033,2.668-0.271,3.918,0.408
		C636.862,235.985,635.478,236.603,634.249,235.721z"/>
	<path fill-rule="evenodd" clip-rule="evenodd" fill="#FEFEFE" d="M777.288,252.036c1.312,0.039,2.662-0.271,3.906,0.417
		C779.894,252.299,778.51,252.928,777.288,252.036z"/>
	<path fill-rule="evenodd" clip-rule="evenodd" fill="#FEFEFE" d="M708.164,245.787c1.319,0.041,2.675-0.265,3.925,0.421
		C710.782,246.059,709.391,246.696,708.164,245.787z"/>
	<path fill-rule="evenodd" clip-rule="evenodd" fill="#FEFEFE" d="M628.487,235.237c1.318,0.037,2.674-0.273,3.926,0.409
		C631.105,235.505,629.718,236.125,628.487,235.237z"/>
	<path fill-rule="evenodd" clip-rule="evenodd" fill="#FEFEFE" d="M739.842,248.66c1.324,0.05,2.688-0.267,3.945,0.421
		C742.472,248.952,741.074,249.577,739.842,248.66z"/>
	<path fill-rule="evenodd" clip-rule="evenodd" fill="#FEFEFE" d="M713.444,246.267c1.318,0.041,2.675-0.265,3.925,0.421
		C716.062,246.539,714.67,247.176,713.444,246.267z"/>
	<path fill-rule="evenodd" clip-rule="evenodd" fill="#FEFEFE" d="M622.727,234.755c1.322,0.036,2.681-0.275,3.937,0.408
		C625.352,235.026,623.961,235.647,622.727,234.755z"/>
	<path fill-rule="evenodd" clip-rule="evenodd" fill="#FEFEFE" d="M734.562,248.18c1.322,0.049,2.684-0.268,3.938,0.424
		C737.187,248.47,735.791,249.098,734.562,248.18z"/>
	<path fill-rule="evenodd" clip-rule="evenodd" fill="#FEFEFE" d="M718.724,246.747c1.321,0.04,2.68-0.27,3.934,0.418
		C721.348,247.021,719.954,247.656,718.724,246.747z"/>
	<path fill-rule="evenodd" clip-rule="evenodd" fill="#FEFEFE" d="M782.567,252.515c1.312,0.038,2.662-0.267,3.906,0.418
		C785.174,252.778,783.789,253.41,782.567,252.515z"/>
	<path fill-rule="evenodd" clip-rule="evenodd" fill="#FEFEFE" d="M729.283,247.704c1.321,0.047,2.683-0.272,3.937,0.42
		C731.908,247.979,730.513,248.619,729.283,247.704z"/>
	<path fill-rule="evenodd" clip-rule="evenodd" fill="#FEFEFE" d="M724.003,247.224c1.321,0.044,2.681-0.267,3.935,0.421
		C726.627,247.499,725.231,248.139,724.003,247.224z"/>
	<path fill-rule="evenodd" clip-rule="evenodd" fill="#FEFEFE" d="M750.89,249.641c1.165,0.024,2.364-0.249,3.457,0.401
		C753.191,249.94,751.961,250.478,750.89,249.641z"/>
	<path fill-rule="evenodd" clip-rule="evenodd" fill="#FEFEFE" d="M745.609,249.161c1.165,0.024,2.364-0.25,3.458,0.401
		C747.911,249.46,746.681,249.998,745.609,249.161z"/>
	<path fill-rule="evenodd" clip-rule="evenodd" fill="#FEFEFE" d="M606.367,233.744c1.153-0.755,2.311-0.532,3.47-0.012
		C608.681,233.735,607.523,233.74,606.367,233.744z"/>
	<path fill-rule="evenodd" clip-rule="evenodd" fill="#FEFEFE" d="M670.717,240.489c0.993,0.036,2.027-0.188,2.927,0.455
		C672.663,240.826,671.582,241.346,670.717,240.489z"/>
	<path fill-rule="evenodd" clip-rule="evenodd" fill="#FEFEFE" d="M667.356,240.009c0.996,0.036,2.031-0.186,2.936,0.452
		C669.308,240.348,668.227,240.866,667.356,240.009z"/>
	<path fill-rule="evenodd" clip-rule="evenodd" fill="#FEFEFE" d="M663.996,239.529c0.996,0.036,2.032-0.186,2.936,0.452
		C665.948,239.868,664.866,240.386,663.996,239.529z"/>
	<path fill-rule="evenodd" clip-rule="evenodd" fill="#FEFEFE" d="M660.637,239.049c0.996,0.036,2.031-0.186,2.935,0.452
		C662.588,239.388,661.506,239.906,660.637,239.049z"/>
	<path fill-rule="evenodd" clip-rule="evenodd" fill="#FEFEFE" d="M657.276,238.569c0.996,0.036,2.031-0.186,2.936,0.452
		C659.228,238.908,658.146,239.426,657.276,238.569z"/>
	<path fill-rule="evenodd" clip-rule="evenodd" fill="#FEFEFE" d="M653.916,238.089c0.996,0.035,2.032-0.186,2.936,0.452
		C655.868,238.428,654.786,238.946,653.916,238.089z"/>
	<path fill-rule="evenodd" clip-rule="evenodd" fill="#FEFEFE" d="M647.196,237.128c0.996,0.036,2.031-0.186,2.936,0.452
		C649.147,237.468,648.066,237.986,647.196,237.128z"/>
	<path fill-rule="evenodd" clip-rule="evenodd" fill="#FEFEFE" d="M650.557,237.608c0.996,0.036,2.031-0.186,2.935,0.452
		C652.508,237.948,651.426,238.466,650.557,237.608z"/>
	<path fill-rule="evenodd" clip-rule="evenodd" fill="#FEFEFE" d="M643.836,236.648c0.996,0.036,2.032-0.186,2.936,0.452
		C645.788,236.987,644.706,237.506,643.836,236.648z"/>
	<path fill-rule="evenodd" clip-rule="evenodd" fill="#FEFEFE" d="M674.079,240.976c0.861,0.003,1.751-0.163,2.515,0.423
		C675.742,241.342,674.809,241.766,674.079,240.976z"/>
	<path fill-rule="evenodd" clip-rule="evenodd" fill="#FEFEFE" d="M677.439,241.456c0.86,0.003,1.75-0.163,2.514,0.423
		C679.102,241.821,678.169,242.246,677.439,241.456z"/>
	<path fill-rule="evenodd" clip-rule="evenodd" fill="#FEFEFE" d="M680.8,241.936c0.86,0.003,1.75-0.163,2.514,0.423
		C682.462,242.302,681.528,242.726,680.8,241.936z"/>
	<path fill-rule="evenodd" clip-rule="evenodd" fill="#FEFEFE" d="M684.159,242.416c0.861,0.003,1.751-0.163,2.514,0.423
		C685.822,242.782,684.889,243.206,684.159,242.416z"/>
	<path fill-rule="evenodd" clip-rule="evenodd" fill="#FEFEFE" d="M687.52,242.896c0.86,0.003,1.75-0.163,2.514,0.423
		C689.182,243.262,688.249,243.686,687.52,242.896z"/>
	<path fill-rule="evenodd" clip-rule="evenodd" fill="#FEFEFE" d="M690.88,243.375c0.86,0.003,1.75-0.163,2.514,0.423
		C692.542,243.742,691.608,244.166,690.88,243.375z"/>
	<path fill-rule="evenodd" clip-rule="evenodd" fill="#FEFEFE" d="M694.239,243.855c0.861,0.003,1.751-0.163,2.514,0.423
		C695.902,244.222,694.969,244.646,694.239,243.855z"/>
	<path fill-rule="evenodd" clip-rule="evenodd" fill="#FEFEFE" d="M362.556,236.648c0.84,0.015,1.713-0.139,2.444,0.457
		C364.175,237.012,363.251,237.444,362.556,236.648z"/>
	<path fill-rule="evenodd" clip-rule="evenodd" fill="#FEFEFE" d="M697.6,244.336c0.86,0.002,1.75-0.164,2.514,0.423
		C699.262,244.702,698.329,245.126,697.6,244.336z"/>
	<path fill-rule="evenodd" clip-rule="evenodd" fill="#FEFEFE" d="M700.96,244.815c0.86,0.003,1.75-0.163,2.514,0.423
		C702.622,245.182,701.688,245.606,700.96,244.815z"/>
	<path fill-rule="evenodd" clip-rule="evenodd" fill="#FEFEFE" d="M704.319,245.296c0.861,0.002,1.75-0.163,2.514,0.423
		C705.981,245.662,705.049,246.086,704.319,245.296z"/>
	<path fill-rule="evenodd" clip-rule="evenodd" fill="#FEFEFE" d="M349.113,234.241c0.841,0.023,1.717-0.138,2.449,0.463
		C350.734,234.612,349.806,235.047,349.113,234.241z"/>
	<path fill-rule="evenodd" clip-rule="evenodd" fill="#FEFEFE" d="M566.083,248.186c0.797-0.009,1.594-0.017,2.391-0.026
		C567.684,248.868,566.887,248.85,566.083,248.186z"/>
	<path fill-rule="evenodd" clip-rule="evenodd" fill="#FEFEFE" d="M330.394,230.882c0.84,0.024,1.717-0.138,2.449,0.461
		C332.015,231.252,331.087,231.687,330.394,230.882z"/>
	<path fill-rule="evenodd" clip-rule="evenodd" fill="#FEFEFE" d="M381.272,240.002c0.842,0.024,1.717-0.138,2.449,0.461
		C382.895,240.372,381.968,240.807,381.272,240.002z"/>
	<path fill-rule="evenodd" clip-rule="evenodd" fill="#FEFEFE" d="M352.001,234.742c0.706-0.021,1.426-0.108,2.018,0.421
		C353.321,235.142,352.559,235.434,352.001,234.742z"/>
	<path fill-rule="evenodd" clip-rule="evenodd" fill="#FEFEFE" d="M354.888,235.242c0.693-0.029,1.395-0.108,1.971,0.416
		C356.181,235.62,355.435,235.906,354.888,235.242z"/>
	<path fill-rule="evenodd" clip-rule="evenodd" fill="#FEFEFE" d="M357.278,235.694c0.71-0.014,1.438-0.106,2.035,0.424
		C358.609,236.102,357.839,236.398,357.278,235.694z"/>
	<path fill-rule="evenodd" clip-rule="evenodd" fill="#FEFEFE" d="M370.72,238.099c0.707-0.018,1.43-0.108,2.022,0.423
		C372.044,238.502,371.278,238.795,370.72,238.099z"/>
	<path fill-rule="evenodd" clip-rule="evenodd" fill="#FEFEFE" d="M375.997,239.053c0.713-0.015,1.441-0.107,2.042,0.423
		C377.333,239.461,376.562,239.76,375.997,239.053z"/>
	<path fill-rule="evenodd" clip-rule="evenodd" fill="#FEFEFE" d="M360.166,236.196c0.696-0.023,1.407-0.114,1.987,0.417
		C361.469,236.581,360.717,236.869,360.166,236.196z"/>
	<path fill-rule="evenodd" clip-rule="evenodd" fill="#FEFEFE" d="M346.726,233.792c0.699-0.022,1.413-0.112,1.999,0.416
		C348.035,234.181,347.279,234.472,346.726,233.792z"/>
	<path fill-rule="evenodd" clip-rule="evenodd" fill="#FEFEFE" d="M378.886,239.553c0.697-0.021,1.41-0.111,1.993,0.417
		C380.192,239.94,379.437,240.231,378.886,239.553z"/>
	<path fill-rule="evenodd" clip-rule="evenodd" fill="#FEFEFE" d="M343.837,233.291c0.713-0.016,1.441-0.106,2.042,0.425
		C345.173,233.701,344.399,234,343.837,233.291z"/>
	<path fill-rule="evenodd" clip-rule="evenodd" fill="#FEFEFE" d="M341.447,232.839c0.694-0.029,1.4-0.111,1.979,0.416
		C342.745,233.22,341.995,233.507,341.447,232.839z"/>
	<path fill-rule="evenodd" clip-rule="evenodd" fill="#FEFEFE" d="M338.56,232.336c0.707-0.013,1.433-0.106,2.028,0.424
		C339.886,232.742,339.118,233.037,338.56,232.336z"/>
	<path fill-rule="evenodd" clip-rule="evenodd" fill="#FEFEFE" d="M336.169,231.883c0.69-0.024,1.394-0.108,1.97,0.415
		C337.461,232.26,336.716,232.545,336.169,231.883z"/>
	<path fill-rule="evenodd" clip-rule="evenodd" fill="#FEFEFE" d="M333.282,231.385c0.703-0.019,1.422-0.109,2.011,0.42
		C334.599,231.782,333.839,232.072,333.282,231.385z"/>
	<path fill-rule="evenodd" clip-rule="evenodd" fill="#FEFEFE" d="M389.438,241.456c0.709-0.014,1.434-0.108,2.029,0.424
		C390.767,241.862,389.999,242.157,389.438,241.456z"/>
	<path fill-rule="evenodd" clip-rule="evenodd" fill="#FEFEFE" d="M368.331,237.648c0.688-0.027,1.389-0.11,1.962,0.412
		C369.618,238.02,368.876,238.304,368.331,237.648z"/>
	<path fill-rule="evenodd" clip-rule="evenodd" fill="#FEFEFE" d="M373.607,238.6c0.692-0.026,1.397-0.109,1.974,0.417
		C374.901,238.98,374.153,239.267,373.607,238.6z"/>
	<path fill-rule="evenodd" clip-rule="evenodd" fill="#FEFEFE" d="M365.442,237.145c0.701-0.017,1.418-0.106,2.006,0.422
		C366.756,237.541,365.995,237.834,365.442,237.145z"/>
	<path fill-rule="evenodd" clip-rule="evenodd" fill="#FEFEFE" d="M384.163,240.505c0.703-0.019,1.421-0.109,2.01,0.42
		C385.479,240.902,384.719,241.192,384.163,240.505z"/>
	<path fill-rule="evenodd" clip-rule="evenodd" fill="#FEFEFE" d="M319.84,228.979c0.707-0.017,1.429-0.104,2.022,0.423
		C321.163,229.382,320.397,229.675,319.84,228.979z"/>
	<path fill-rule="evenodd" clip-rule="evenodd" fill="#FEFEFE" d="M328.005,230.433c0.698-0.021,1.41-0.111,1.994,0.417
		C329.312,230.821,328.558,231.111,328.005,230.433z"/>
	<path fill-rule="evenodd" clip-rule="evenodd" fill="#FEFEFE" d="M387.049,241.003c0.69-0.024,1.394-0.108,1.97,0.415
		C388.341,241.38,387.595,241.665,387.049,241.003z"/>
	<path fill-rule="evenodd" clip-rule="evenodd" fill="#FEFEFE" d="M325.118,229.933c0.711-0.016,1.438-0.105,2.035,0.425
		C326.448,230.342,325.679,230.639,325.118,229.933z"/>
	<path fill-rule="evenodd" clip-rule="evenodd" fill="#FEFEFE" d="M322.728,229.48c0.692-0.026,1.396-0.109,1.973,0.417
		C324.021,229.86,323.274,230.146,322.728,229.48z"/>
	<path fill-rule="evenodd" clip-rule="evenodd" fill="#FEFEFE" d="M392.327,241.958c0.695-0.028,1.4-0.11,1.979,0.417
		C393.625,242.34,392.876,242.627,392.327,241.958z"/>
	<path fill-rule="evenodd" clip-rule="evenodd" fill="#FEFEFE" d="M572.308,246.718c0.369-0.477,0.899-0.507,1.437-0.519
		C573.425,246.814,572.844,246.703,572.308,246.718z"/>
	<path fill-rule="evenodd" clip-rule="evenodd" fill="#FEFEFE" d="M604.961,234.245c0.367-0.471,0.894-0.5,1.426-0.515
		C606.066,234.33,605.489,234.222,604.961,234.245z"/>
	<path fill-rule="evenodd" clip-rule="evenodd" fill="#FEFEFE" d="M568.472,248.161c0.375-0.462,0.901-0.497,1.436-0.51
		C569.582,248.251,569.005,248.144,568.472,248.161z"/>
	<path fill-rule="evenodd" clip-rule="evenodd" fill="#FEFEFE" d="M598.709,236.639c0.37-0.472,0.899-0.504,1.436-0.517
		C599.825,236.734,599.244,236.623,598.709,236.639z"/>
	<path fill-rule="evenodd" clip-rule="evenodd" fill="#FEFEFE" d="M582.381,242.874c0.371-0.477,0.904-0.503,1.442-0.516
		C583.503,242.977,582.919,242.863,582.381,242.874z"/>
	<path fill-rule="evenodd" clip-rule="evenodd" fill="#FEFEFE" d="M578.558,244.323c0.369-0.468,0.895-0.504,1.429-0.514
		C579.665,244.411,579.088,244.303,578.558,244.323z"/>
	<path fill-rule="evenodd" clip-rule="evenodd" fill="#FEFEFE" d="M588.633,240.48c0.371-0.466,0.896-0.507,1.433-0.516
		C589.745,240.572,589.166,240.463,588.633,240.48z"/>
	<path fill-rule="evenodd" clip-rule="evenodd" fill="#FEFEFE" d="M592.46,239.034c0.233-0.334,0.564-0.447,0.956-0.418
		C593.193,238.975,592.841,239.035,592.46,239.034z"/>
	<path fill-rule="evenodd" clip-rule="evenodd" fill="#FEFEFE" d="M569.886,247.663c0.233-0.354,0.58-0.447,0.977-0.428
		C570.639,247.61,570.278,247.675,569.886,247.663z"/>
	<path fill-rule="evenodd" clip-rule="evenodd" fill="#FEFEFE" d="M603.899,234.687c0.271-0.343,0.639-0.448,1.056-0.438
		C604.717,234.669,604.324,234.715,603.899,234.687z"/>
	<path fill-rule="evenodd" clip-rule="evenodd" fill="#FEFEFE" d="M593.825,238.529c0.266-0.343,0.631-0.448,1.044-0.435
		C594.635,238.512,594.245,238.555,593.825,238.529z"/>
	<path fill-rule="evenodd" clip-rule="evenodd" fill="#FEFEFE" d="M586.21,241.427c0.234-0.345,0.575-0.447,0.97-0.424
		C586.956,241.372,586.599,241.435,586.21,241.427z"/>
	<path fill-rule="evenodd" clip-rule="evenodd" fill="#FEFEFE" d="M585.131,241.869c0.281-0.356,0.67-0.451,1.097-0.452
		C585.991,241.88,585.576,241.912,585.131,241.869z"/>
	<path fill-rule="evenodd" clip-rule="evenodd" fill="#FEFEFE" d="M583.796,242.375c0.234-0.365,0.594-0.445,0.992-0.436
		C584.563,242.326,584.199,242.394,583.796,242.375z"/>
	<path fill-rule="evenodd" clip-rule="evenodd" fill="#FEFEFE" d="M587.571,240.923c0.27-0.351,0.643-0.452,1.062-0.443
		C588.397,240.911,588,240.955,587.571,240.923z"/>
	<path fill-rule="evenodd" clip-rule="evenodd" fill="#FEFEFE" d="M596.287,237.584c0.235-0.347,0.579-0.445,0.975-0.424
		C597.037,237.532,596.678,237.595,596.287,237.584z"/>
	<path fill-rule="evenodd" clip-rule="evenodd" fill="#FEFEFE" d="M581.313,243.317c0.272-0.357,0.654-0.452,1.077-0.449
		C582.155,243.314,581.75,243.354,581.313,243.317z"/>
	<path fill-rule="evenodd" clip-rule="evenodd" fill="#FEFEFE" d="M579.964,243.822c0.234-0.354,0.582-0.447,0.979-0.429
		C580.719,243.77,580.358,243.834,579.964,243.822z"/>
	<path fill-rule="evenodd" clip-rule="evenodd" fill="#FEFEFE" d="M597.641,237.08c0.272-0.353,0.651-0.448,1.072-0.442
		C598.475,237.074,598.073,237.114,597.641,237.08z"/>
	<path fill-rule="evenodd" clip-rule="evenodd" fill="#FEFEFE" d="M595.206,238.028c0.282-0.357,0.672-0.453,1.101-0.455
		C596.07,238.041,595.653,238.071,595.206,238.028z"/>
	<path fill-rule="evenodd" clip-rule="evenodd" fill="#FEFEFE" d="M590.041,239.979c0.237-0.352,0.586-0.446,0.983-0.431
		C590.8,239.929,590.438,239.995,590.041,239.979z"/>
	<path fill-rule="evenodd" clip-rule="evenodd" fill="#FEFEFE" d="M577.494,244.765c0.268-0.353,0.642-0.45,1.06-0.44
		C578.316,244.751,577.921,244.795,577.494,244.765z"/>
	<path fill-rule="evenodd" clip-rule="evenodd" fill="#FEFEFE" d="M576.133,245.269c0.233-0.342,0.572-0.446,0.966-0.421
		C576.875,245.214,576.519,245.275,576.133,245.269z"/>
	<path fill-rule="evenodd" clip-rule="evenodd" fill="#FEFEFE" d="M591.385,239.474c0.276-0.357,0.661-0.449,1.086-0.446
		C592.232,239.477,591.824,239.513,591.385,239.474z"/>
	<path fill-rule="evenodd" clip-rule="evenodd" fill="#FEFEFE" d="M575.057,245.711c0.279-0.355,0.666-0.45,1.092-0.451
		C575.912,245.719,575.499,245.752,575.057,245.711z"/>
	<path fill-rule="evenodd" clip-rule="evenodd" fill="#FEFEFE" d="M600.119,236.137c0.235-0.358,0.589-0.447,0.987-0.434
		C600.882,236.087,600.519,236.154,600.119,236.137z"/>
	<path fill-rule="evenodd" clip-rule="evenodd" fill="#FEFEFE" d="M573.718,246.216c0.234-0.361,0.591-0.447,0.989-0.436
		C574.482,246.166,574.119,246.234,573.718,246.216z"/>
	<path fill-rule="evenodd" clip-rule="evenodd" fill="#FEFEFE" d="M601.462,235.633c0.277-0.354,0.662-0.451,1.088-0.449
		C602.312,235.638,601.902,235.673,601.462,235.633z"/>
	<path fill-rule="evenodd" clip-rule="evenodd" fill="#FEFEFE" d="M602.536,235.191c0.235-0.336,0.568-0.446,0.962-0.419
		C603.274,235.134,602.92,235.195,602.536,235.191z"/>
	<path fill-rule="evenodd" clip-rule="evenodd" fill="#FEFEFE" d="M571.235,247.158c0.273-0.355,0.655-0.447,1.077-0.442
		C572.073,247.155,571.67,247.194,571.235,247.158z"/>
</g>
</svg>
