<?xml version="1.0" encoding="utf-8"?>
<!-- Generator: Adobe Illustrator 16.0.0, SVG Export Plug-In . SVG Version: 6.00 Build 0)  -->
<!DOCTYPE svg PUBLIC "-//W3C//DTD SVG 1.1//EN" "http://www.w3.org/Graphics/SVG/1.1/DTD/svg11.dtd">
<svg version="1.1" id="Layer_1" xmlns="http://www.w3.org/2000/svg" xmlns:xlink="http://www.w3.org/1999/xlink" x="0px" y="0px"
	 width="792px" height="612px" viewBox="0 0 792 612" enable-background="new 0 0 792 612" xml:space="preserve">
<path fill="#68686A" d="M792.356,608.892c-0.007-104.155-0.006-208.31-0.006-312.464c0-1.192,0-2.384,0-3.837
	c-6.742-0.455-13.35,0.067-20.149-0.309c-0.095-1.146-0.247-2.155-0.251-3.166c-0.024-5.6-0.004-11.2-0.018-16.799
	c-0.006-2.556-0.021-2.569-2.364-3.464c-4.479-1.709-8.967-3.391-13.442-5.109c-1.002-0.385-1.942-0.505-3.003-0.141
	c-2.109,0.725-4.259,1.332-6.554,2.038c-0.094,2.827-0.186,5.573-0.28,8.427c-3.119,0-5.887,0-8.914,0
	c-0.119-1.584-0.231-3.06-0.369-4.888c-2.568-0.098-5.138-0.196-7.781-0.297c-0.142-1.144-0.257-2.073-0.383-3.085
	c-1.506-0.784-3.074-1.281-4.789-1.27c-0.8,0.005-1.61-0.087-2.397,0.012c-2.251,0.284-4.056-0.435-5.548-2.135
	c-0.625-0.71-1.413-1.277-2.064-1.854c-0.292,0.071-0.526,0.058-0.579,0.15c-1.12,1.93-2.85,2.203-4.914,2.118
	c-3.435-0.142-6.879-0.088-10.317-0.015c-1.38,0.029-2.532-0.211-3.319-1.421c-1.026-1.578-2.539-1.995-4.331-2.048
	c-2.635-0.079-5.266-0.473-7.897-0.466c-3.186,0.008-6.377,0.214-9.553,0.49c-1.821,0.159-3.486-0.013-5.053-0.988
	c-0.472-0.294-1.037-0.441-1.502-0.744c-1.534-1-2.963-0.954-4.383,0.243c-0.414,0.349-0.966,0.533-1.391,0.758
	c-0.253-0.075-0.443-0.078-0.553-0.173c-2.353-2.048-5.137-2.328-8.081-2.022c-0.713,0.074-1.444-0.031-2.157,0.043
	c-1.233,0.127-2.204-0.271-2.897-1.289c-0.962-1.411-2.293-1.736-3.943-1.68c-3.836,0.131-7.679,0.06-11.517,0.157
	c-1.212,0.031-2.162-0.277-3.004-1.145c-1.058-1.09-2.202-2.095-3.271-3.175c-0.722-0.73-1.515-1.044-2.567-0.987
	c-7.506,0.401-15.014,0.755-22.521,1.127c-0.56,0.027-1.12,0.05-1.676,0.114c-1.215,0.14-2.054-0.272-2.271-1.55
	c-0.318-1.873-1.576-2.76-3.22-3.474c-4.837-2.102-9.603-4.369-14.441-6.465c-1.368-0.593-2.876-1.055-4.353-1.173
	c-7.57-0.608-15.151-1.084-22.729-1.606c-5.344-0.368-10.688-0.726-16.031-1.112c-0.703-0.051-1.396-0.246-2.415-0.433
	c0-1.651,0.025-3.227-0.006-4.802c-0.054-2.631-2.748-4.311-5.09-3.102c-0.448,0.23-0.736,0.994-0.872,1.565
	c-0.533,2.253-0.97,4.53-1.456,6.794c-0.133,0.618-0.318,1.224-0.551,2.108c-0.824-0.113-1.585-0.178-2.328-0.327
	c-4.225-0.846-8.434-1.769-12.672-2.534c-1.124-0.203-1.683-0.658-1.994-1.699c-0.406-1.36-0.92-2.688-1.354-3.936
	c-3.223-0.441-3.224-0.442-4.509,2.038c-0.257,0.497-0.521,0.991-0.75,1.501c-0.445,0.992-1.091,1.471-2.265,1.245
	c-1.561-0.301-3.15-0.455-5.033-0.714c-0.32-1.806-0.631-3.583-0.953-5.357c-0.162-0.888,0.095-2.129-1.265-2.207
	c-1.616-0.092-1.295,1.29-1.444,2.246c-0.222,1.421-0.386,2.851-0.605,4.272c-0.13,0.84-0.447,1.582-1.468,1.589
	c-2.348,0.015-3.763,1.459-5.046,3.172c-0.519,0.693-1.162,1.292-1.779,1.967c-0.553-0.226-1.017-0.352-1.415-0.588
	c-4.193-2.49-8.37-5.008-12.566-7.493c-0.816-0.483-1.277-1.096-1.425-2.064c-0.202-1.322-0.564-2.619-0.854-3.905
	c-1.61-0.156-2.457,0.398-2.733,1.849c-0.148,0.78-0.501,1.519-0.681,2.295c-0.199,0.861-0.647,1.5-1.506,1.68
	c-1.4,0.294-1.973,1.338-2.277,2.516c-0.646,2.502-2.193,3.89-4.701,4.469c-1.677,0.388-3.282,1.088-5.156,1.73
	c-0.863-2.964-1.637-5.619-2.471-8.48c-0.939,0-1.794,0.032-2.646-0.006c-2.497-0.111-4.332,0.652-4.837,3.403
	c-0.236,1.286-1.044,2.123-2.353,2.423c-0.154,0.035-0.305,0.104-0.444,0.179c-2.903,1.577-5.649,1.811-8.304-0.632
	c-0.545-0.501-1.656-0.707-2.427-0.577c-1.883,0.317-3.71,0.948-5.576,1.377c-1.145,0.263-1.223,1.208-1.354,2.028
	c-0.236,1.467-1.076,1.967-2.44,2.489c-4.603,1.758-9.14,0.691-13.705,0.104c-2.853-0.367-5.703-0.756-8.546-1.195
	c-1.397-0.215-2.44,0.139-3.326,1.299c-1.06,1.389-2.276,2.659-3.488,4.054c-0.601-0.231-1.176-0.324-1.591-0.632
	c-2.139-1.593-4.575-1.109-6.947-1.067c-0.306,0.005-0.704,0.078-0.898,0.276c-1.28,1.309-2.778,0.92-4.275,0.631
	c-1.02-0.197-2.047-0.357-3.061-0.581c-1.764-0.39-3.51-0.451-5.144,0.427c-2.499,1.342-4.974,1.181-7.594,0.296
	c-5.028-1.698-4.231-0.307-4.312-5.705c-0.027-1.833-0.004-3.667-0.004-5.306c-0.916-1.14-2.623-1.186-2.607-2.878
	c0.01-1.18-0.118-2.361-0.211-4.021c-0.822,0.45-1.346,0.665-1.774,1.001c-0.221,0.173-0.347,0.553-0.386,0.855
	c-0.304,2.325-1.609,3.33-3.928,3.069c-0.145-0.016-0.307,0.078-0.454,0.137c-0.07,0.028-0.124,0.095-0.422,0.336
	c-0.344,2.442-0.72,5.108-1.111,7.891c-0.725,0.139-1.331,0.296-1.947,0.366c-5.321,0.598-10.643,1.189-15.968,1.752
	c-0.705,0.075-1.449,0.084-2.138-0.056c-1.212-0.247-2.422-0.506-3.633-0.761v-19.405c-0.028,0.206-0.057,0.406-0.084,0.624
	c-0.343,2.721-0.308,5.493-0.364,8.245c-0.043,2.098,0.056,4.199,0.056,6.298c-0.001,0.728,0.064,1.542-1.062,2.073
	c-0.122-0.751-0.265-1.296-0.292-1.845c-0.147-2.949-0.271-5.899-0.396-8.848c-0.489-11.471-0.987-22.941-1.459-34.413
	c-0.338-8.194-0.631-16.39-0.968-24.584c-0.051-1.242-0.157-2.492-0.37-3.715c-0.274-1.578-1.103-2.894-2.673-3.379
	c-1.296-0.4-1.518-1.173-1.501-2.346c0.046-3.412,0.016-6.825,0.015-10.237c0-0.622,0-1.244,0-1.865c-0.131,0-0.262,0-0.393,0
	c0,3.399,0.013,6.798-0.01,10.196c-0.005,0.848-0.072,1.703-0.204,2.54c-0.114,0.733-0.438,1.369-1.251,1.61
	c-2.035,0.602-2.658,2.219-2.783,4.087c-0.439,6.545-0.853,13.092-1.232,19.641c-0.332,5.697-0.574,11.4-0.916,17.097
	c-0.193,3.228-0.522,3.503-3.708,3.777c-0.131,0.011-0.262,0.015-0.392,0.031c-0.514,0.067-0.947,0.171-1.334,0.301v29.424
	c-0.833,0.108-1.612,0.209-2.608,0.338c-0.049-1.593-0.096-2.918-0.128-4.245c-0.05-2.054-0.042-2.066-1.996-2.594
	c-4.112-1.11-3.545-0.658-3.799-4.511c-0.078-1.191-0.3-2.373-0.485-3.777c-1.062-0.331-2.165-0.783-3.312-1.004
	c-1.712-0.331-3.464,1.187-3.523,2.956c-0.04,1.199,0.083,2.412-0.062,3.595c-0.077,0.627-0.418,1.488-0.905,1.75
	c-1.52,0.818-3.167,1.401-5.077,2.207c-0.487-2.042-0.909-3.794-1.322-5.548c-1.062-4.512,0.046-4.006-4.979-4.036
	c-0.939-0.005-1.88,0.089-2.895,0.141c-0.125,0.713-0.264,1.245-0.307,1.784c-0.221,2.793-0.212,2.794-3.444,2.7
	c-0.069-0.808-0.179-1.647-0.205-2.49c-0.036-1.199-0.079-2.405,0.006-3.599c0.125-1.771-0.204-3.086-2.215-3.645
	c-0.715-0.199-1.355-1.059-1.8-1.762c-0.885-1.398-1.611-2.897-2.608-4.735c-0.966,2.649-1.775,4.868-2.729,7.483
	c-1.088-1.237-1.907-2.169-2.785-3.167c-0.485,0.162-0.922,0.336-1.374,0.452c-1.468,0.375-2.01,1.277-1.945,2.804
	c0.105,2.459,0.028,4.927,0.028,7.664c-1.721,0.177-3.162,0.325-4.988,0.513c0-2.58-0.125-4.801,0.037-7.001
	c0.144-1.95-0.396-3.423-2.042-4.487c-0.266-0.171-0.46-0.451-0.722-0.63c-2.391-1.641-3.915-3.704-3.401-6.802
	c0.034-0.206-0.126-0.445-0.205-0.695c-1.445-0.842-2.585-0.144-3.72,0.679c-4.66,3.382-9.327,6.756-13.991,10.134
	c-2.915,2.111-5.969,4.057-8.71,6.374c-4.955,4.188-10.893,6.254-16.842,8.361c-0.218,0.077-0.465,0.074-0.929,0.141
	c-0.882-1.291-1.811-2.649-2.773-4.058c-0.489,0.115-0.86,0.232-1.24,0.287c-1.35,0.193-1.883,0.924-1.798,2.306
	c0.098,1.594,0.043,3.199,0.014,4.798c-0.034,1.903-0.047,1.924-1.923,2.415c-0.749,0.196-1.529,0.272-2.591,0.454
	c0-3.18,0-6.105,0-9.299c-1.526-0.357-2.868-0.672-4.443-1.042c-0.139,1.315-0.253,2.393-0.399,3.774
	c-1.249,0.032-2.5,0.187-3.724,0.067c-1.833-0.179-3.326,0.077-4.068,2.024c-0.092,0.242-0.423,0.394-0.941,0.848
	c-1.608-5.934-2.367-11.776-3.905-17.552c-2.685,0-5.292,0-8.166,0c-0.342,3.813,0.077,7.629-0.262,11.615
	c-1.427-0.234-2.587-0.424-3.985-0.654c-0.544,1.779-1.089,3.561-1.635,5.343c-0.156,0.011-0.313,0.022-0.469,0.034
	c-0.23-0.609-0.528-1.202-0.68-1.83c-0.469-1.94-0.857-3.899-1.325-5.84c-0.494-2.049-0.527-2.06-2.521-2.026
	c-0.465,0.008-0.929,0.102-1.589,0.18c-1.205,6.178-2.402,12.318-3.599,18.458c-0.209,0.001-0.418,0.002-0.627,0.003
	c-0.307-1.605-0.653-3.205-0.912-4.818c-0.67-4.181-1.289-8.371-1.963-12.551c-0.098-0.609-0.225-1.34-0.615-1.754
	c-1.963-2.088-4.018-4.09-6.147-6.229c-1.465,0.97-2.846,1.771-4.079,2.756c-0.482,0.385-0.812,1.159-0.905,1.8
	c-0.528,3.638-0.959,7.289-1.434,10.934c-0.06,0.462-0.18,0.917-0.335,1.688c-0.802,0-1.573,0.044-2.337-0.01
	c-1.355-0.097-2.704-0.308-4.06-0.375c-2.156-0.106-2.72,0.39-3.327-2.709c-0.215-1.096-0.545-2.169-0.777-3.262
	c-0.17-0.802-0.547-1.31-1.429-1.309c-4.549,0.001-9.099,0-13.812,0c-0.616,1.749-1.246,3.374-1.753,5.036
	c-0.388,1.273-0.916,2.396-2.176,2.989c-1.372,0.645-1.674,1.755-1.615,3.159c0.077,1.82,0.019,3.646,0.019,5.642
	c-1.111,0-1.948,0-3.025,0c-0.363-1.882-0.903-3.727-1.029-5.599c-0.129-1.914-0.963-2.927-2.766-3.328
	c-0.694-0.154-1.359-0.442-2.148-0.707c-1.047,0.851-2.208,1.6-3.1,2.592c-0.52,0.579-0.818,1.537-0.852,2.339
	c-0.105,2.556-0.04,5.118-0.04,7.678c0,0.792,0,1.583,0,2.471c-0.713,0.264-1.274,0.565-1.872,0.676
	c-2.906,0.539-5.843,0.929-8.726,1.566c-1.859,0.411-3.5,0.005-5.086-0.791c-1.93-0.97-3.762-1.095-5.657,0.074
	c-1.066,0.657-2.241,0.783-3.446,0.279c-0.289-0.121-0.646-0.08-0.934-0.204c-4.666-2.014-9.036-0.385-13.746,1.049
	c0,1.345-0.041,2.683,0.013,4.017c0.045,1.114-0.383,1.778-1.45,2.166c-3.379,1.227-6.717,2.572-10.119,3.731
	c-0.846,0.288-1.954,0.286-2.805,0.005c-4.739-1.568-9.392-1.318-14.096,0.178c-2.277,0.724-4.649,1.16-6.989,1.672
	c-0.683,0.149-1.406,0.111-2.11,0.159c0,116.64,0,233.28,0,349.921c264,0,528,0,792.001,0
	C792.438,611.284,792.356,610.088,792.356,608.892z"/>
</svg>
