<?xml version="1.0" encoding="utf-8"?>
<!-- Generator: Adobe Illustrator 16.0.0, SVG Export Plug-In . SVG Version: 6.00 Build 0)  -->
<!DOCTYPE svg PUBLIC "-//W3C//DTD SVG 1.1//EN" "http://www.w3.org/Graphics/SVG/1.1/DTD/svg11.dtd">
<svg version="1.1" id="Layer_1" xmlns="http://www.w3.org/2000/svg" xmlns:xlink="http://www.w3.org/1999/xlink" x="0px" y="0px"
	 width="792px" height="612px" viewBox="0 0 792 612" enable-background="new 0 0 792 612" xml:space="preserve">
<g>
	<path fill-rule="evenodd" clip-rule="evenodd" fill="#4D4C52" d="M0,331.679c11.754,0.233,23.509,0.448,35.263,0.706
		c7.755,0.17,15.508,0.396,23.262,0.605c2.087,0.057,2.202,0.017,2.975-1.964c3.429-8.783,6.87-17.563,10.236-26.371
		c0.444-1.161,0.644-2.469,0.687-3.719c0.099-2.876,0.031-5.759,0.031-8.638c0-0.787,0-1.574,0-2.615
		c7.359-1.012,14.529-1.999,22.053-3.034c0,6.127,0,12.077,0,18.342c8.201,0.873,16.105,1.714,24.295,2.585
		c0.053-1.235,0.126-2.167,0.127-3.099c0.01-7.759,0.057-15.52-0.033-23.278c-0.02-1.75,0.551-2.799,2.069-3.611
		c1.972-1.053,3.864-2.263,5.739-3.483c0.901-0.586,1.721-0.648,2.695-0.242c3.539,1.478,7.074,2.972,10.658,4.334
		c1.355,0.515,1.763,1.37,1.869,2.702c0.435,5.418,0.892,10.836,1.441,16.244c0.816,8.03,1.661,16.059,2.6,24.076
		c0.828,7.064,1.798,14.111,2.714,21.165c0.089,0.679,0.237,1.35,0.389,2.198c0.837-0.233,1.445-0.367,2.029-0.572
		c7.161-2.52,14.321-5.044,21.477-7.579c2.152-0.762,2.161-0.778,2.168-3.051c0.012-3.913,0.003-7.826,0.003-11.988
		c5.922-1.549,11.764-3.076,17.836-4.665c0-2.871,0.216-5.678-0.057-8.438c-0.312-3.16,0.522-5.38,3.645-6.514
		c1.182-0.429,1.709-1.346,1.574-2.647c-0.073-0.712-0.011-1.438-0.011-2.158c0-36.958,0.015-73.915-0.039-110.873
		c-0.003-2.074,0.382-3.75,2.097-4.994c1.215-0.882,1.562-2.073,1.498-3.556c-0.104-2.396,0.066-4.803-0.059-7.197
		c-0.092-1.783,0.444-3.227,1.447-4.664c2.287-3.278,4.428-6.659,6.693-9.953c0.763-1.107,1.08-2.236,1.071-3.575
		c-0.045-6.159,0.011-12.319-0.04-18.479c-0.013-1.645,0.201-3.132,1.137-4.55c0.454-0.689,0.693-1.625,0.736-2.464
		c0.344-6.708,0.625-13.419,0.91-20.13c0.227-5.353,0.434-10.706,0.791-16.07c0.297,5.302,0.612,10.603,0.886,15.906
		c0.338,6.548,0.635,13.099,0.972,19.647c0.033,0.624,0.048,1.365,0.379,1.835c1.053,1.492,1.018,3.138,1.012,4.827
		c-0.018,6.639,0.019,13.279-0.027,19.918c-0.01,1.416,0.291,2.639,1.062,3.838c1.472,2.285,2.83,4.642,4.236,6.969
		c1.876,3.104,1.877,3.103,4.882,4.361c0,0.695-0.001,1.48,0,2.266c0.001,3.04,0.035,6.08-0.017,9.119
		c-0.018,1.09,0.299,1.917,1.331,2.283c2.728,0.967,3.103,2.942,3.118,5.62c0.098,17.835,0.388,35.668,0.618,53.502
		c0.157,12.156,0.317,24.312,0.48,36.467c0.088,6.557,0.186,13.114,0.274,19.671c0.013,0.95,0.002,1.901,0.002,3.029
		c1.541,0.352,2.914,0.665,4.562,1.041c0.048,0.809,0.14,1.65,0.143,2.492c0.017,4,0.045,8-0.015,11.999
		c-0.018,1.229,0.334,2.107,1.314,2.882c1.881,1.487,3.621,3.155,5.523,4.614c1.188,0.912,1.704,2.01,1.812,3.448
		c0.332,4.385,0.785,8.761,1.041,13.149c0.098,1.674,0.707,2.704,2.077,3.722c1.862,1.384,3.577,1.507,5.767,0.971
		c12.494-3.058,25.025-5.969,37.543-8.933c0.852-0.201,1.697-0.434,2.77-0.709c0.047-0.853,0.132-1.707,0.135-2.561
		c0.012-5.199,0.059-10.4-0.025-15.599c-0.026-1.608,0.284-2.806,1.897-3.428c1.515-0.584,2.094-1.7,2.142-3.344
		c0.118-4.156,0.417-8.306,0.605-12.459c0.557-12.222,1.125-24.444,1.607-36.67c0.079-2.019,0.593-3.422,2.576-4.341
		c2.452-1.136,4.751-2.603,7.427-4.1c18.278,36.602,36.39,73.15,54.604,109.646c0.183-0.001,0.365-0.003,0.548-0.004
		c0.182-0.867,0.397-1.729,0.54-2.603c1.875-11.434,3.728-22.872,5.619-34.303c0.422-2.555,3.042-4.572,5.625-4.334
		c3.422,0.315,6.829,0.786,10.253,1.076c1.588,0.135,2.53,0.873,3.397,2.183c10.693,16.13,21.444,32.221,32.181,48.322
		c3.815,5.722,7.629,11.445,11.448,17.164c0.481,0.722,0.997,1.422,1.825,2.599c0.503-0.744,0.816-1.293,1.209-1.777
		c2.267-2.797,4.524-5.601,6.843-8.354c0.812-0.964,1.213-1.955,1.269-3.239c0.646-14.699,1.334-29.396,2.035-44.094
		c0.278-5.824,0.617-11.646,0.943-17.74c2.632-0.617,5.224-1.428,7.878-1.811c10.915-1.573,21.849-3.015,32.775-4.508
		c0.713-0.098,1.419-0.243,2.131-0.342c3.858-0.534,3.855-0.532,4.712-4.448c0.614-2.81,1.283-5.608,1.842-8.429
		c0.225-1.134,0.686-1.929,1.837-2.247c0.306-0.084,0.59-0.244,0.885-0.368c4.211-1.77,4.187-1.721,8.222,0.237
		c1.178,0.571,1.624,1.372,1.768,2.572c0.489,4.127,1.055,8.245,1.526,12.374c0.136,1.183,0.506,2.079,1.515,2.819
		c7.159,5.249,14.282,10.548,21.421,15.825c0.247,0.182,0.541,0.3,0.926,0.509c0.711-0.876,0.424-1.862,0.426-2.751
		c0.02-15.839,0.014-31.677,0.014-47.516c0-0.951,0-1.902,0-2.819c3.85-2.17,7.478-1.634,11.265,0.16
		c0.091,0.763,0.253,1.624,0.288,2.489c0.386,9.428,0.737,18.858,1.128,28.286c0.449,10.866,0.92,21.731,1.415,32.596
		c0.035,0.777,0.234,1.589,0.543,2.305c7.493,17.396,15.012,34.782,22.532,52.167c0.151,0.35,0.386,0.662,0.815,0.98
		c1.005-7.394,1.352-14.818,1.894-22.225c0.555-7.574,1.146-15.146,1.69-22.722c0.539-7.496,1.024-14.996,1.562-22.492
		c0.543-7.576,1.133-15.148,1.683-22.724c0.541-7.467,1.058-14.937,1.611-22.784c3.365,1.577,6.41,2.942,9.385,4.446
		c0.658,0.333,1.107,1.127,1.586,1.759c17.85,23.604,35.691,47.213,53.537,70.82c0.562,0.743,1.158,1.46,2.005,2.121
		c0.81-7.821,1.001-15.599,1.32-23.369c0.317-7.731,0.707-15.459,1.078-23.478c1.642,0.209,3.048,0.36,4.444,0.572
		c2.132,0.322,4.516,0.206,6.313,1.169c1.791,0.959,3.037,2.98,4.446,4.602c15.169,17.444,30.322,34.902,45.484,52.353
		c0.606,0.697,1.255,1.358,2.226,2.406c0.214-1.92,0.418-3.31,0.518-4.707c0.539-7.576,1.041-15.156,1.579-22.732
		c0.74-10.447,1.507-20.893,2.251-31.34c0.38-5.344,0.79-10.686,1.07-16.035c0.077-1.482,0.443-2.569,1.73-3.415
		c1.468-0.963,2.854-2.062,4.203-3.188c0.924-0.772,1.772-0.833,2.857-0.353c1.656,0.732,3.379,1.314,5.296,2.044
		c0.842-3.311,1.621-6.375,2.412-9.487c0.916,0,1.71-0.094,2.476,0.015c10.128,1.436,20.249,2.919,30.38,4.341
		c1.742,0.244,3.064,0.94,4.265,2.28c4.91,5.48,9.898,10.893,14.933,16.259c1.072,1.144,1.469,2.309,1.462,3.844
		c-0.048,11.359-0.025,22.719-0.025,34.078c0,87.273,0,174.548,0.002,261.822c0,1.198,0.024,2.396,0.038,3.595
		C528.06,612,264.117,612,0,612C0,518.56,0,425.119,0,331.679z"/>
</g>
</svg>
